<svg width="70" height="70" viewBox="0 0 70 70" fill="none" xmlns="http://www.w3.org/2000/svg">
<g clip-path="url(#clip0_630_976)">
<path opacity="0.85" d="M34.9999 70.0947C54.3298 70.0947 69.9999 54.4247 69.9999 35.0947C69.9999 15.7648 54.3298 0.0947266 34.9999 0.0947266C15.6699 0.0947266 -0.00012207 15.7648 -0.00012207 35.0947C-0.00012207 54.4247 15.6699 70.0947 34.9999 70.0947Z" fill="#7546DD" fill-opacity="0.05"/>
<path d="M35.2432 14.3896L51.2565 24.3985L47.5032 46.9184L35.2432 55.6761L22.9833 46.9184L19.23 24.3985L35.2432 14.3896Z" fill="url(#paint0_linear_630_976)" fill-opacity="0.1"/>
<path d="M43.4328 34.2861L41.0761 40.3944H36.1182L34.9404 43.4495H29.9844L31.1613 40.3944L32.3392 37.3403L33.518 34.2861H43.4328Z" fill="#554CA9"/>
<path d="M46.0001 27.0947L43.6719 32.8096H32.2614L31.6773 34.2377L30.6045 36.8731L30.5146 37.0947H24.0001L26.3282 31.3807H31.2261L32.971 27.0947H46.0001Z" fill="#554CA9"/>
<path opacity="0.85" d="M35.0001 63.6272C50.8104 63.6272 63.6272 50.8104 63.6272 35.0001C63.6272 19.1898 50.8104 6.37305 35.0001 6.37305C19.1898 6.37305 6.37305 19.1898 6.37305 35.0001C6.37305 50.8104 19.1898 63.6272 35.0001 63.6272Z" stroke="#7B79F3" stroke-width="0.5"/>
</g>
<defs>
<linearGradient id="paint0_linear_630_976" x1="35" y1="19.0947" x2="35" y2="35.0947" gradientUnits="userSpaceOnUse">
<stop stop-color="white"/>
<stop offset="1" stop-color="#6B6AD6"/>
</linearGradient>
<clipPath id="clip0_630_976">
<rect width="70" height="70" fill="white"/>
</clipPath>
</defs>
</svg>
