<svg width="120" height="120" viewBox="0 0 120 120" fill="none" xmlns="http://www.w3.org/2000/svg">
<path d="M88 25H32C28.134 25 25 28.134 25 32V88C25 91.866 28.134 95 32 95H88C91.866 95 95 91.866 95 88V32C95 28.134 91.866 25 88 25Z" fill="#7546DD" fill-opacity="0.2" stroke="white" stroke-opacity="0.2" stroke-width="0.5"/>
<path d="M25 48.3333H95H25Z" fill="#E1D6F7"/>
<path d="M25 48.3333H95" stroke="white" stroke-opacity="0.1" stroke-width="0.875"/>
<path d="M25 71.6667H95H25Z" fill="#E1D6F7"/>
<path d="M25 71.6667H95" stroke="white" stroke-opacity="0.1" stroke-width="0.875"/>
<path opacity="0.55" d="M39.0833 34V86.5" stroke="#7B79F3" stroke-width="3" stroke-linecap="round"/>
<path opacity="0.9" d="M39.0833 75.9999C41.3385 75.9999 43.1667 74.1717 43.1667 71.9166C43.1667 69.6614 41.3385 67.8333 39.0833 67.8333C36.8282 67.8333 35 69.6614 35 71.9166C35 74.1717 36.8282 75.9999 39.0833 75.9999Z" fill="#E1D6F7" stroke="url(#paint0_linear_630_688)" stroke-width="0.5" stroke-linecap="round"/>
<path opacity="0.55" d="M59.5 34V86.5" stroke="#7B79F3" stroke-width="3" stroke-linecap="round"/>
<path opacity="0.9" d="M59.5 58.4999C61.7552 58.4999 63.5834 56.6717 63.5834 54.4166C63.5834 52.1614 61.7552 50.3333 59.5 50.3333C57.2449 50.3333 55.4167 52.1614 55.4167 54.4166C55.4167 56.6717 57.2449 58.4999 59.5 58.4999Z" fill="#E1D6F7" stroke="url(#paint1_linear_630_688)" stroke-width="0.5" stroke-linecap="round"/>
<path opacity="0.55" d="M79.9167 34V86.5" stroke="#7B79F3" stroke-width="3" stroke-linecap="round"/>
<path opacity="0.9" d="M79.9166 67.2499C82.1718 67.2499 84 65.4217 84 63.1666C84 60.9114 82.1718 59.0833 79.9166 59.0833C77.6615 59.0833 75.8333 60.9114 75.8333 63.1666C75.8333 65.4217 77.6615 67.2499 79.9166 67.2499Z" fill="#E1D6F7" stroke="url(#paint2_linear_630_688)" stroke-width="0.5" stroke-linecap="round"/>
<defs>
<linearGradient id="paint0_linear_630_688" x1="35" y1="67.8333" x2="35" y2="75.9999" gradientUnits="userSpaceOnUse">
<stop stop-color="#7546DD" stop-opacity="0.2"/>
<stop offset="0.45" stop-color="#7546DD" stop-opacity="0.5"/>
<stop offset="1" stop-color="#7546DD"/>
</linearGradient>
<linearGradient id="paint1_linear_630_688" x1="55.4167" y1="50.3333" x2="55.4167" y2="58.4999" gradientUnits="userSpaceOnUse">
<stop stop-color="#7546DD" stop-opacity="0.2"/>
<stop offset="0.45" stop-color="#7546DD" stop-opacity="0.5"/>
<stop offset="1" stop-color="#7546DD"/>
</linearGradient>
<linearGradient id="paint2_linear_630_688" x1="75.8333" y1="59.0833" x2="75.8333" y2="67.2499" gradientUnits="userSpaceOnUse">
<stop stop-color="#7546DD" stop-opacity="0.2"/>
<stop offset="0.45" stop-color="#7546DD" stop-opacity="0.5"/>
<stop offset="1" stop-color="#7546DD"/>
</linearGradient>
</defs>
</svg>
