<svg width="24" height="23" viewBox="0 0 24 23" fill="none" xmlns="http://www.w3.org/2000/svg">
<path d="M12 2C6.48578 2 2 6.48578 2 12C2 17.5142 6.48578 22 12 22C17.5142 22 22 17.5142 22 12C22 6.48578 17.5142 2 12 2Z" fill="#7B79F3"/>
<path d="M17.7505 10.4059L12.2187 15.7586C12.0528 15.9192 11.8349 16 11.6171 16C11.3992 16 11.1814 15.9192 11.0154 15.7586L8.24964 13.0823C7.91679 12.7603 7.91679 12.2398 8.24964 11.9179C8.58233 11.5958 9.12009 11.5958 9.45294 11.9179L11.6171 14.012L16.5472 9.24156C16.8799 8.91948 17.4176 8.91948 17.7505 9.24156C18.0832 9.56349 18.0832 10.0839 17.7505 10.4059Z" fill="#FAFAFA"/>
</svg>
