<svg width="24" height="23" viewBox="0 0 24 23" fill="none" xmlns="http://www.w3.org/2000/svg">
<path d="M12 2C6.48578 2 2 6.48578 2 12C2 17.5142 6.48578 22 12 22C17.5142 22 22 17.5142 22 12C22 6.48578 17.5142 2 12 2Z" fill="#7B79F3"/>
<path d="M16.7505 10.4059L11.2187 15.7586C11.0528 15.9192 10.8349 16 10.6171 16C10.3992 16 10.1814 15.9192 10.0154 15.7586L7.24964 13.0823C6.91679 12.7603 6.91679 12.2398 7.24964 11.9179C7.58233 11.5958 8.12009 11.5958 8.45294 11.9179L10.6171 14.012L15.5472 9.24156C15.8799 8.91948 16.4176 8.91948 16.7505 9.24156C17.0832 9.56349 17.0832 10.0839 16.7505 10.4059Z" fill="#FAFAFA"/>
</svg>
