<svg width="66" height="18" viewBox="0 0 66 18" fill="none" xmlns="http://www.w3.org/2000/svg">
<g opacity="0.9">
<rect y="6.41748" width="2.79015" height="3.34818" rx="0.279015" fill="white"/>
<rect x="3.90625" y="4.74341" width="2.79015" height="5.02227" rx="0.279015" fill="white"/>
<rect x="8.09143" y="2.79028" width="2.79015" height="6.97537" rx="0.279015" fill="white"/>
<rect x="11.9977" y="0.558105" width="2.79015" height="9.20749" rx="0.279015" fill="white"/>
</g>
<g opacity="0.9">
<path d="M36.8708 2.96661C35.0513 1.13443 32.5299 0 29.7437 0C26.9491 0 24.421 1.14126 22.6002 2.98316L24.1785 4.56156C25.5954 3.12357 27.5655 2.23212 29.7437 2.23212C31.9136 2.23212 33.8767 3.11673 35.2924 4.54497L36.8708 2.96661Z" fill="white"/>
<path d="M34.306 5.53144C33.1428 4.35564 31.5283 3.62719 29.7437 3.62719C27.9507 3.62719 26.3295 4.3625 25.165 5.54804L26.7435 7.12651C27.5038 6.34486 28.5672 5.85931 29.7437 5.85931C30.9119 5.85931 31.9683 6.33795 32.7276 7.10984L34.306 5.53144Z" fill="white"/>
<path d="M31.7411 8.09635C31.2344 7.57691 30.5267 7.25438 29.7437 7.25438C28.9523 7.25438 28.2379 7.58386 27.7301 8.11311L29.7272 10.1102L31.7411 8.09635Z" fill="white"/>
</g>
<rect opacity="0.6" x="45.0608" y="0.697445" width="18.694" height="8.92847" rx="1.8136" stroke="white" stroke-width="0.837044"/>
<rect opacity="0.9" x="46.0374" y="1.67407" width="16.7409" height="6.97537" rx="1.11606" fill="white"/>
<path opacity="0.6" d="M64.7314 3.90601C65.3478 3.90601 65.8475 4.40568 65.8475 5.02206V5.30108C65.8475 5.91746 65.3478 6.41714 64.7314 6.41714V3.90601Z" fill="white"/>
<rect opacity="0.6" x="7.53345" y="15.9038" width="45.4794" height="1.9531" rx="0.976552" fill="white"/>
</svg>
