<svg width="244" height="20" viewBox="0 0 244 20" fill="none" xmlns="http://www.w3.org/2000/svg">
<g opacity="0.9">
<rect x="181.408" y="9.01758" width="2.65216" height="3.18259" rx="0.265216" fill="#0C0223"/>
<rect x="185.121" y="7.42627" width="2.65216" height="4.77388" rx="0.265216" fill="#0C0223"/>
<rect x="189.099" y="5.56982" width="2.65216" height="6.63039" rx="0.265216" fill="#0C0223"/>
<rect x="192.812" y="3.448" width="2.65216" height="8.75212" rx="0.265216" fill="#0C0223"/>
</g>
<g opacity="0.9">
<path d="M216.455 5.73737C214.725 3.99581 212.329 2.91748 209.68 2.91748C207.024 2.91748 204.621 4.0023 202.89 5.75311L204.39 7.25344C205.737 5.88657 207.61 5.03921 209.68 5.03921C211.743 5.03921 213.609 5.88007 214.954 7.23768L216.455 5.73737Z" fill="#0C0223"/>
<path d="M214.017 8.17535C212.911 7.05771 211.377 6.36529 209.68 6.36529C207.976 6.36529 206.435 7.06423 205.328 8.19114L206.828 9.69154C207.551 8.94855 208.562 8.48701 209.68 8.48701C210.791 8.48701 211.795 8.94198 212.517 9.67569L214.017 8.17535Z" fill="#0C0223"/>
<path d="M211.579 10.6134C211.097 10.1197 210.424 9.81309 209.68 9.81309C208.928 9.81309 208.249 10.1263 207.766 10.6293L209.665 12.5277L211.579 10.6134Z" fill="#0C0223"/>
</g>
<rect opacity="0.6" x="224.24" y="3.58045" width="17.7695" height="8.48691" rx="1.7239" stroke="#0C0223" stroke-width="0.795647"/>
<rect opacity="0.9" x="225.168" y="4.50879" width="15.9129" height="6.63039" rx="1.06086" fill="#0C0223"/>
<path opacity="0.6" d="M242.938 6.63037C243.524 6.63037 243.999 7.10534 243.999 7.69123V7.95645C243.999 8.54235 243.524 9.01731 242.938 9.01731V6.63037Z" fill="#0C0223"/>
<rect opacity="0.6" x="188.568" y="18.0347" width="43.2302" height="1.85651" rx="0.928255" fill="#0C0223"/>
</svg>
