<svg width="122" height="26" viewBox="0 0 122 26" fill="none" xmlns="http://www.w3.org/2000/svg">
<path d="M76.4945 2.31877V6.04167H74.1609V8.48314H76.4945V16.7787C76.4945 19.6114 77.7759 20.7444 80.9997 20.7444C81.5663 20.7444 82.1058 20.677 82.5779 20.5961V18.1816C82.1733 18.222 81.917 18.249 81.4719 18.249C80.0286 18.249 79.3946 17.5746 79.3946 16.0368V8.48314H82.5779V6.04167H79.3946V2.31877H76.4945Z" fill="white"/>
<path d="M90.7904 20.9468C95.0799 20.9468 97.7102 18.0737 97.7102 13.3121C97.7102 8.57756 95.0664 5.69096 90.7904 5.69096C86.501 5.69096 83.8572 8.57756 83.8572 13.3121C83.8572 18.0737 86.4875 20.9468 90.7904 20.9468ZM90.7904 18.3704C88.268 18.3704 86.8517 16.5224 86.8517 13.3121C86.8517 10.1288 88.268 8.26732 90.7904 8.26732C93.2994 8.26732 94.7292 10.1288 94.7292 13.3121C94.7292 16.509 93.2994 18.3704 90.7904 18.3704Z" fill="white"/>
<path d="M99.9606 20.6635H102.861V11.9902C102.861 9.92643 104.412 8.53709 106.611 8.53709C107.123 8.53709 107.986 8.63151 108.229 8.71245V5.85283C107.919 5.77189 107.366 5.73143 106.934 5.73143C105.019 5.73143 103.387 6.78355 102.969 8.22685H102.753V5.97423H99.9606V20.6635Z" fill="white"/>
<path d="M115.43 8.15941C117.575 8.15941 118.978 9.65666 119.045 11.9632H111.626C111.788 9.67015 113.285 8.15941 115.43 8.15941ZM119.032 16.6978C118.492 17.8443 117.292 18.4783 115.538 18.4783C113.218 18.4783 111.721 16.8462 111.626 14.2698V14.108H121.999V13.0963C121.999 8.48314 119.531 5.69096 115.444 5.69096C111.303 5.69096 108.672 8.67198 108.672 13.3661C108.672 18.0602 111.249 20.9468 115.457 20.9468C118.816 20.9468 121.163 19.3281 121.824 16.6978H119.032Z" fill="white"/>
<path d="M57.4762 15.239C57.6999 18.846 60.7057 21.1528 65.1796 21.1528C69.961 21.1528 72.9528 18.7342 72.9528 14.8755C72.9528 11.8417 71.2472 10.164 67.1089 9.19931L64.8859 8.65406C62.2576 8.03891 61.195 7.21405 61.195 5.77404C61.195 3.95654 62.8448 2.76818 65.3194 2.76818C67.6681 2.76818 69.2899 3.92858 69.5835 5.78802H72.6313C72.4495 2.3907 69.4576 0 65.3613 0C60.9574 0 58.0214 2.3907 58.0214 5.98375C58.0214 8.94766 59.6851 10.7092 63.3341 11.5621L65.9345 12.1912C68.6048 12.8203 69.7792 13.743 69.7792 15.2809C69.7792 17.0705 67.9337 18.3707 65.4172 18.3707C62.7189 18.3707 60.8455 17.1543 60.5799 15.239H57.4762Z" fill="white"/>
<path d="M27.4343 5.73143C25.4379 5.73143 23.7114 6.7296 22.8211 8.4022H22.6053V5.97423H19.8131V25.5464H22.7132V18.4378H22.9425C23.7114 19.9891 25.3705 20.9063 27.4612 20.9063C31.1706 20.9063 33.5312 17.9792 33.5312 13.3121C33.5312 8.645 31.1706 5.73143 27.4343 5.73143ZM26.6114 18.303C24.1835 18.303 22.6592 16.3876 22.6592 13.3256C22.6592 10.2502 24.1835 8.33476 26.6249 8.33476C29.0799 8.33476 30.5502 10.2097 30.5502 13.3121C30.5502 16.428 29.0799 18.303 26.6114 18.303Z" fill="white"/>
<path d="M43.6791 5.73143C41.6827 5.73143 39.9562 6.7296 39.0659 8.4022H38.8501V5.97423H36.0579V25.5464H38.958V18.4378H39.1873C39.9562 19.9891 41.6153 20.9063 43.706 20.9063C47.4154 20.9063 49.776 17.9792 49.776 13.3121C49.776 8.645 47.4154 5.73143 43.6791 5.73143ZM42.8562 18.303C40.4283 18.303 38.904 16.3876 38.904 13.3256C38.904 10.2502 40.4283 8.33476 42.8697 8.33476C45.3247 8.33476 46.795 10.2097 46.795 13.3121C46.795 16.428 45.3247 18.303 42.8562 18.303Z" fill="white"/>
<path d="M14.6098 20.6635H17.9373L10.6533 0.489325H7.28395L0 20.6635H3.21556L5.075 15.3089H12.7644L14.6098 20.6635ZM8.80785 4.15227H9.04552L11.9675 12.6805H5.8719L8.80785 4.15227Z" fill="white"/>
</svg>
