<svg width="29" height="36" viewBox="0 0 29 36" fill="none" xmlns="http://www.w3.org/2000/svg">
<path d="M24.0456 18.8181C24.0808 16.0865 25.5478 13.5017 27.875 12.071C26.4069 9.97422 23.9478 8.6448 21.3894 8.56476C18.6606 8.27833 16.0152 10.1976 14.6247 10.1976C13.2073 10.1976 11.0663 8.59319 8.76088 8.64063C5.75585 8.73771 2.9544 10.4462 1.49239 13.0734C-1.65036 18.5146 0.693846 26.5113 3.70434 30.9095C5.21055 33.0632 6.97088 35.469 9.27424 35.3837C11.5282 35.2902 12.37 33.9464 15.0908 33.9464C17.7862 33.9464 18.576 35.3837 20.9261 35.3294C23.3448 35.2902 24.8686 33.1662 26.322 30.9921C27.4042 29.4575 28.2369 27.7614 28.7894 25.9667C25.9471 24.7646 24.049 21.9042 24.0456 18.8181Z" fill="white"/>
<path d="M19.6067 5.67226C20.9254 4.08917 21.5751 2.05438 21.4178 0C19.403 0.211608 17.542 1.17452 16.2055 2.69687C14.8985 4.18428 14.2183 6.18327 14.3469 8.15913C16.3624 8.17988 18.3437 7.24307 19.6067 5.67226Z" fill="white"/>
</svg>
