<svg width="120" height="120" viewBox="0 0 120 120" fill="none" xmlns="http://www.w3.org/2000/svg">
<path opacity="0.55" d="M60 95.04C79.352 95.04 95.04 79.352 95.04 60C95.04 40.6479 79.352 24.96 60 24.96C40.6479 24.96 24.96 40.6479 24.96 60C24.96 79.352 40.6479 95.04 60 95.04Z" stroke="#C8B5F1" stroke-width="4" stroke-linecap="round"/>
<path opacity="0.5" d="M60 83.0525C72.7316 83.0525 83.0526 72.7315 83.0526 59.9999C83.0526 47.2683 72.7316 36.9473 60 36.9473C47.2684 36.9473 36.9474 47.2683 36.9474 59.9999C36.9474 72.7315 47.2684 83.0525 60 83.0525Z" stroke="#C8B5F1" stroke-width="3.3" stroke-linecap="round"/>
<path opacity="0.48" d="M60 72.4484C66.8751 72.4484 72.4484 66.875 72.4484 59.9999C72.4484 53.1249 66.8751 47.5515 60 47.5515C53.1249 47.5515 47.5516 53.1249 47.5516 59.9999C47.5516 66.875 53.1249 72.4484 60 72.4484Z" stroke="#C8B5F1" stroke-width="2.5" stroke-linecap="round"/>
<path opacity="0.8" d="M48.9347 60.0001C48.9347 57.0654 50.1005 54.2509 52.1757 52.1758C54.2508 50.1006 57.0653 48.9348 60 48.9348C62.9347 48.9348 65.7492 50.1006 67.8243 52.1758C69.8995 54.2509 71.0653 57.0654 71.0653 60.0001" stroke="url(#paint0_linear_630_672)" stroke-width="0.371916" stroke-linecap="round"/>
<path d="M59.9399 64.4399C62.4252 64.4399 64.4399 62.4252 64.4399 59.9399C64.4399 57.4547 62.4252 55.4399 59.9399 55.4399C57.4547 55.4399 55.4399 57.4547 55.4399 59.9399C55.4399 62.4252 57.4547 64.4399 59.9399 64.4399Z" fill="#7546DD" fill-opacity="0.4"/>
<path d="M42.6447 31.7355L60 60L77.8513 32.2314C77.8513 32.2314 71.405 26.7768 60 26.7769C49.5868 26.7769 42.6447 31.7355 42.6447 31.7355Z" fill="#7546DD" fill-opacity="0.7"/>
<path d="M60.0001 26.2769C65.784 26.2769 70.3165 27.6606 73.4073 29.0483C74.9524 29.7421 76.1378 30.4365 76.9396 30.9604C77.3405 31.2224 77.646 31.4419 77.8527 31.5972C77.9559 31.6748 78.0343 31.7368 78.088 31.7798C78.1149 31.8013 78.1362 31.8178 78.1505 31.8296C78.1576 31.8354 78.1631 31.8399 78.1671 31.8433C78.1691 31.8449 78.1708 31.8461 78.172 31.8472L78.173 31.8491H78.174C78.1742 31.8493 78.1743 31.8497 77.8517 32.231L78.174 31.8501L78.5089 32.1333L78.2716 32.5015L60.421 60.27L59.9904 60.9399L59.5743 60.2612L42.2189 31.9976L41.9747 31.6001L42.3536 31.3286L42.6447 31.7358C42.3782 31.3627 42.3563 31.3313 42.3546 31.3286V31.3276L42.3566 31.3267C42.3577 31.3258 42.3595 31.3251 42.3615 31.3237C42.3656 31.3208 42.3715 31.3163 42.379 31.311C42.394 31.3006 42.4154 31.2853 42.4435 31.2661C42.5001 31.2276 42.5839 31.1721 42.6925 31.1021C42.9096 30.962 43.229 30.7638 43.6437 30.5269C44.4736 30.0526 45.6871 29.4227 47.2286 28.7935C50.3108 27.5355 54.7143 26.2769 60.0001 26.2769Z" stroke="white" stroke-opacity="0.5"/>
<defs>
<linearGradient id="paint0_linear_630_672" x1="48.9347" y1="48.9348" x2="71.0653" y2="48.9348" gradientUnits="userSpaceOnUse">
<stop stop-color="white" stop-opacity="0"/>
<stop offset="0.3" stop-color="white" stop-opacity="0.866667"/>
<stop offset="0.7" stop-color="#E7DBFF" stop-opacity="0.533333"/>
<stop offset="1" stop-color="white" stop-opacity="0"/>
</linearGradient>
</defs>
</svg>
