<svg width="136" height="32" viewBox="0 0 136 32" fill="none" xmlns="http://www.w3.org/2000/svg">
<path d="M4.152 4H11.22L17.51 12.996L25.06 4H27.318L18.37 14.228L28 28H20.936L14.366 18.606L6.256 28H4L13.506 17.376L4.152 4Z" fill="white"/>
<path d="M79.3625 12.1191C79.3087 10.8962 79.1114 10.0555 78.8288 9.32701C78.5373 8.55372 78.0887 7.86139 77.5011 7.28586C76.9269 6.70136 76.2317 6.24719 75.4692 5.95951C74.7382 5.67622 73.9039 5.47846 72.6839 5.42455C71.4549 5.36606 71.0647 5.35254 67.9474 5.35254C64.8301 5.35254 64.4399 5.36606 63.2154 5.41998C61.9954 5.4739 61.1567 5.67183 60.4301 5.95494C59.6585 6.24719 58.9679 6.6968 58.3937 7.28586C57.8106 7.86139 57.3577 8.55828 57.0705 9.32262C56.7879 10.0555 56.5907 10.8917 56.5369 12.1146C56.4785 13.3466 56.465 13.7377 56.465 16.8625C56.465 19.9873 56.4785 20.3784 56.5323 21.6059C56.5861 22.8288 56.7836 23.6695 57.0662 24.398C57.3577 25.1713 57.8106 25.8636 58.3937 26.4392C58.9679 27.0237 59.6631 27.4778 60.4256 27.7655C61.1567 28.0488 61.9909 28.2466 63.211 28.3005C64.4354 28.3546 64.8257 28.3679 67.943 28.3679C71.0603 28.3679 71.4505 28.3546 72.675 28.3005C73.895 28.2466 74.7337 28.0488 75.4603 27.7655C77.0033 27.1675 78.2233 25.9446 78.8199 24.398C79.1023 23.6651 79.2998 22.8288 79.3535 21.6059C79.4073 20.3784 79.4208 19.9873 79.4208 16.8625C79.4208 13.7377 79.4163 13.3466 79.3625 12.1191ZM77.2949 21.516C77.2455 22.64 77.0571 23.247 76.9001 23.6516C76.5143 24.6543 75.7205 25.45 74.7202 25.8368C74.3165 25.9941 73.7066 26.1829 72.5897 26.2323C71.3786 26.2864 71.0154 26.2997 67.952 26.2997C64.8885 26.2997 64.5207 26.2864 63.314 26.2323C62.1927 26.1829 61.5872 25.9941 61.1835 25.8368C60.6858 25.6524 60.2327 25.3601 59.8649 24.978C59.4837 24.6047 59.1921 24.1551 59.0082 23.6562C58.8512 23.2515 58.6628 22.64 58.6136 21.5205C58.5596 20.3066 58.5463 19.9423 58.5463 16.8715C58.5463 13.8006 58.5596 13.432 58.6136 12.2226C58.6628 11.0986 58.8512 10.4916 59.0082 10.087C59.1921 9.58782 59.4837 9.13382 59.8695 8.765C60.2416 8.38283 60.6901 8.09058 61.1881 7.90635C61.5918 7.74899 62.2018 7.56019 63.3186 7.51066C64.5296 7.45674 64.893 7.44322 67.9563 7.44322C71.0244 7.44322 71.3876 7.45674 72.5942 7.51066C73.7156 7.56019 74.3211 7.74899 74.7248 7.90635C75.2225 8.09058 75.6756 8.38283 76.0434 8.765C76.4246 9.13821 76.7162 9.58782 76.9001 10.087C77.0571 10.4916 77.2455 11.103 77.2949 12.2226C77.3487 13.4365 77.3621 13.8006 77.3621 16.8715C77.3621 19.9423 77.3487 20.302 77.2949 21.516Z" fill="white"/>
<path d="M67.9407 10.9502C64.6845 10.9502 62.0425 13.5983 62.0425 16.8625C62.0425 20.1268 64.6845 22.7749 67.9407 22.7749C71.1971 22.7749 73.8389 20.1268 73.8389 16.8625C73.8389 13.5983 71.1971 10.9502 67.9407 10.9502ZM67.9407 20.6977C65.8282 20.6977 64.1147 18.9803 64.1147 16.8625C64.1147 14.7448 65.8282 13.0274 67.9407 13.0274C70.0534 13.0274 71.7667 14.7448 71.7667 16.8625C71.7667 18.9803 70.0534 20.6977 67.9407 20.6977Z" fill="white"/>
<path d="M75.4531 10.7142C75.4531 11.4765 74.8366 12.0945 74.076 12.0945C73.3156 12.0945 72.699 11.4765 72.699 10.7142C72.699 9.95184 73.3156 9.33398 74.076 9.33398C74.8366 9.33398 75.4531 9.95184 75.4531 10.7142Z" fill="white"/>
<path d="M129.695 7.10732C127.921 6.28065 126.001 5.68065 124.001 5.33398C123.966 5.33449 123.933 5.34886 123.908 5.37398C123.668 5.81398 123.388 6.38732 123.201 6.82732C121.08 6.50752 118.923 6.50752 116.801 6.82732C116.615 6.37398 116.335 5.81398 116.081 5.37398C116.068 5.34732 116.028 5.33398 115.988 5.33398C113.988 5.68065 112.081 6.28065 110.295 7.10732C110.281 7.10732 110.268 7.12065 110.255 7.13398C106.628 12.5607 105.628 17.8407 106.121 23.0673C106.121 23.094 106.135 23.1207 106.161 23.134C108.561 24.894 110.868 25.9607 113.148 26.6673C113.188 26.6807 113.228 26.6673 113.241 26.6407C113.775 25.9073 114.255 25.134 114.668 24.3207C114.695 24.2673 114.668 24.214 114.615 24.2007C113.855 23.9073 113.135 23.5607 112.428 23.1607C112.375 23.134 112.375 23.054 112.415 23.014C112.561 22.9073 112.708 22.7873 112.855 22.6807C112.881 22.654 112.921 22.654 112.948 22.6673C117.535 24.7607 122.481 24.7607 127.015 22.6673C127.041 22.654 127.081 22.654 127.108 22.6807C127.255 22.8007 127.401 22.9073 127.548 23.0273C127.601 23.0673 127.601 23.1473 127.535 23.174C126.841 23.5873 126.108 23.9207 125.348 24.214C125.295 24.2273 125.281 24.294 125.295 24.334C125.721 25.1473 126.201 25.9207 126.721 26.654C126.761 26.6673 126.801 26.6807 126.841 26.6673C129.135 25.9607 131.441 24.894 133.841 23.134C133.868 23.1207 133.881 23.094 133.881 23.0673C134.468 17.0273 132.908 11.7873 129.748 7.13398C129.735 7.12065 129.721 7.10732 129.695 7.10732ZM115.361 19.8807C113.988 19.8807 112.841 18.614 112.841 17.054C112.841 15.494 113.961 14.2273 115.361 14.2273C116.775 14.2273 117.895 15.5073 117.881 17.054C117.881 18.614 116.761 19.8807 115.361 19.8807ZM124.655 19.8807C123.281 19.8807 122.135 18.614 122.135 17.054C122.135 15.494 123.255 14.2273 124.655 14.2273C126.068 14.2273 127.188 15.5073 127.175 17.054C127.175 18.614 126.068 19.8807 124.655 19.8807Z" fill="white"/>
</svg>
