<svg width="128" height="25" viewBox="0 0 128 25" fill="none" xmlns="http://www.w3.org/2000/svg">
<path d="M99.491 19.0158H102.308V0.662256H99.491V19.0158ZM124.867 7.27397L121.637 15.2309H121.541L118.189 7.27397H115.154L120.182 18.3948L117.315 24.5814H120.253L128 7.27397H124.867ZM108.888 16.9312C107.967 16.9312 106.679 16.4822 106.679 15.3726C106.679 13.956 108.283 13.413 109.666 13.413C110.904 13.413 111.488 13.6722 112.24 14.0266C112.021 15.727 110.516 16.9312 108.888 16.9312ZM109.23 6.87245C107.19 6.87245 105.077 7.7464 104.203 9.68253L106.704 10.6976C107.238 9.68253 108.233 9.35221 109.278 9.35221C110.735 9.35221 112.216 10.2015 112.24 11.7132V11.9018C111.73 11.6185 110.637 11.1936 109.302 11.1936C106.605 11.1936 103.862 12.6335 103.862 15.3254C103.862 17.7811 106.072 19.3633 108.549 19.3633C110.442 19.3633 111.488 18.5369 112.142 17.5684H112.24V18.986H114.961V11.9488C114.961 8.69039 112.458 6.87245 109.23 6.87245ZM91.8179 9.50812H87.8108V3.21718H91.8179C93.9242 3.21718 95.12 4.91239 95.12 6.36258C95.12 7.78487 93.9242 9.50812 91.8179 9.50812ZM91.7455 0.662256H84.9946V19.0158H87.8108V12.0625H91.7455C94.8678 12.0625 97.9373 9.86486 97.9373 6.36258C97.9373 2.86102 94.8678 0.662256 91.7455 0.662256ZM54.9332 16.9346C52.9868 16.9346 51.3579 15.3495 51.3579 13.1744C51.3579 10.974 52.9868 9.36645 54.9332 9.36645C56.8548 9.36645 58.3628 10.974 58.3628 13.1744C58.3628 15.3495 56.8548 16.9346 54.9332 16.9346ZM58.1682 8.30164H58.0708C57.4386 7.56862 56.2219 6.90636 54.6903 6.90636C51.4788 6.90636 48.5358 9.65038 48.5358 13.1744C48.5358 16.6743 51.4788 19.3943 54.6903 19.3943C56.2219 19.3943 57.4386 18.7319 58.0708 17.9755H58.1682V18.8735C58.1682 21.2632 56.8548 22.5398 54.7386 22.5398C53.0122 22.5398 51.9419 21.3338 51.5036 20.317L49.0472 21.3103C49.752 22.9653 51.6245 25 54.7386 25C58.0473 25 60.8446 23.1075 60.8446 18.4951V7.28483H58.1682V8.30164ZM62.7909 19.0158H65.6113V0.662256H62.7909V19.0158ZM69.7711 12.9611C69.6985 10.5484 71.6937 9.31888 73.1281 9.31888C74.2475 9.31888 75.1952 9.8631 75.5126 10.6431L69.7711 12.9611ZM78.5276 10.8793C77.9927 9.48463 76.3631 6.90636 73.0307 6.90636C69.722 6.90636 66.9736 9.43706 66.9736 13.1503C66.9736 16.6508 69.6985 19.3943 73.3463 19.3943C76.2893 19.3943 77.9927 17.6446 78.6985 16.6272L76.5093 15.2078C75.7792 16.2487 74.7824 16.9346 73.3463 16.9346C71.9119 16.9346 70.8899 16.2959 70.234 15.0422L78.8195 11.5893L78.5276 10.8793ZM10.1196 8.82222V11.4711H16.6384C16.4438 12.9611 15.933 14.0489 15.1545 14.8059C14.2056 15.728 12.7217 16.7454 10.1196 16.7454C6.10598 16.7454 2.96837 13.5998 2.96837 9.69735C2.96837 5.79486 6.10598 2.64889 10.1196 2.64889C12.2846 2.64889 13.8653 3.47689 15.033 4.54126L16.9552 2.67237C15.325 1.15891 13.1605 1.90735e-06 10.1196 1.90735e-06C4.6215 1.90735e-06 0 4.35202 0 9.69735C0 15.0422 4.6215 19.3943 10.1196 19.3943C13.0868 19.3943 15.325 18.4481 17.0761 16.6743C18.8762 14.9241 19.4359 12.4644 19.4359 10.4774C19.4359 9.8631 19.3868 9.29539 19.2895 8.82222H10.1196ZM26.8471 16.9346C24.9008 16.9346 23.2223 15.3736 23.2223 13.1503C23.2223 10.9034 24.9008 9.36645 26.8471 9.36645C28.7927 9.36645 30.4712 10.9034 30.4712 13.1503C30.4712 15.3736 28.7927 16.9346 26.8471 16.9346ZM26.8471 6.90636C23.2947 6.90636 20.4006 9.53161 20.4006 13.1503C20.4006 16.7454 23.2947 19.3943 26.8471 19.3943C30.3981 19.3943 33.2928 16.7454 33.2928 13.1503C33.2928 9.53161 30.3981 6.90636 26.8471 6.90636ZM40.908 16.9346C38.963 16.9346 37.2839 15.3736 37.2839 13.1503C37.2839 10.9034 38.963 9.36645 40.908 9.36645C42.8544 9.36645 44.5323 10.9034 44.5323 13.1503C44.5323 15.3736 42.8544 16.9346 40.908 16.9346ZM40.908 6.90636C37.357 6.90636 34.4629 9.53161 34.4629 13.1503C34.4629 16.7454 37.357 19.3943 40.908 19.3943C44.4604 19.3943 47.3545 16.7454 47.3545 13.1503C47.3545 9.53161 44.4604 6.90636 40.908 6.90636Z" fill="white"/>
</svg>
