<svg width="32" height="32" viewBox="0 0 32 32" fill="none" xmlns="http://www.w3.org/2000/svg">
<path d="M28.6246 10L21.1246 5.66987V14.3301L28.6246 10ZM5.22485 17.2L5.97226 17.1377C5.88092 16.0416 6.05193 14.4058 6.81956 13.0747C7.55617 11.7973 8.86384 10.75 11.2248 10.75V10V9.25C8.30586 9.25 6.51352 10.6027 5.52014 12.3253C4.55777 13.9942 4.36878 15.9584 4.47744 17.2623L5.22485 17.2ZM11.2248 10V10.75C11.2305 10.75 11.2361 10.75 11.2417 10.75C11.2473 10.75 11.2529 10.75 11.2585 10.75C11.2641 10.75 11.2698 10.75 11.2754 10.75C11.281 10.75 11.2867 10.75 11.2923 10.75C11.298 10.75 11.3036 10.75 11.3093 10.75C11.3149 10.75 11.3206 10.75 11.3262 10.75C11.3319 10.75 11.3375 10.75 11.3432 10.75C11.3489 10.75 11.3546 10.75 11.3602 10.75C11.3659 10.75 11.3716 10.75 11.3773 10.75C11.383 10.75 11.3887 10.75 11.3944 10.75C11.4001 10.75 11.4058 10.75 11.4115 10.75C11.4172 10.75 11.4229 10.75 11.4287 10.75C11.4344 10.75 11.4401 10.75 11.4458 10.75C11.4516 10.75 11.4573 10.75 11.463 10.75C11.4688 10.75 11.4745 10.75 11.4803 10.75C11.486 10.75 11.4918 10.75 11.4975 10.75C11.5033 10.75 11.509 10.75 11.5148 10.75C11.5206 10.75 11.5264 10.75 11.5321 10.75C11.5379 10.75 11.5437 10.75 11.5495 10.75C11.5553 10.75 11.5611 10.75 11.5668 10.75C11.5726 10.75 11.5784 10.75 11.5842 10.75C11.5901 10.75 11.5959 10.75 11.6017 10.75C11.6075 10.75 11.6133 10.75 11.6191 10.75C11.625 10.75 11.6308 10.75 11.6366 10.75C11.6425 10.75 11.6483 10.75 11.6541 10.75C11.66 10.75 11.6658 10.75 11.6717 10.75C11.6775 10.75 11.6834 10.75 11.6893 10.75C11.6951 10.75 11.701 10.75 11.7069 10.75C11.7127 10.75 11.7186 10.75 11.7245 10.75C11.7304 10.75 11.7362 10.75 11.7421 10.75C11.748 10.75 11.7539 10.75 11.7598 10.75C11.7657 10.75 11.7716 10.75 11.7775 10.75C11.7834 10.75 11.7893 10.75 11.7953 10.75C11.8012 10.75 11.8071 10.75 11.813 10.75C11.8189 10.75 11.8249 10.75 11.8308 10.75C11.8367 10.75 11.8427 10.75 11.8486 10.75C11.8546 10.75 11.8605 10.75 11.8665 10.75C11.8724 10.75 11.8784 10.75 11.8843 10.75C11.8903 10.75 11.8963 10.75 11.9022 10.75C11.9082 10.75 11.9142 10.75 11.9202 10.75C11.9261 10.75 11.9321 10.75 11.9381 10.75C11.9441 10.75 11.9501 10.75 11.9561 10.75C11.9621 10.75 11.9681 10.75 11.9741 10.75C11.9801 10.75 11.9861 10.75 11.9921 10.75C11.9981 10.75 12.0042 10.75 12.0102 10.75C12.0162 10.75 12.0222 10.75 12.0283 10.75C12.0343 10.75 12.0403 10.75 12.0464 10.75C12.0524 10.75 12.0585 10.75 12.0645 10.75C12.0706 10.75 12.0766 10.75 12.0827 10.75C12.0887 10.75 12.0948 10.75 12.1009 10.75C12.1069 10.75 12.113 10.75 12.1191 10.75C12.1251 10.75 12.1312 10.75 12.1373 10.75C12.1434 10.75 12.1495 10.75 12.1556 10.75C12.1617 10.75 12.1678 10.75 12.1739 10.75C12.18 10.75 12.1861 10.75 12.1922 10.75C12.1983 10.75 12.2044 10.75 12.2105 10.75C12.2166 10.75 12.2228 10.75 12.2289 10.75C12.235 10.75 12.2411 10.75 12.2473 10.75C12.2534 10.75 12.2595 10.75 12.2657 10.75C12.2718 10.75 12.278 10.75 12.2841 10.75C12.2903 10.75 12.2964 10.75 12.3026 10.75C12.3088 10.75 12.3149 10.75 12.3211 10.75C12.3273 10.75 12.3334 10.75 12.3396 10.75C12.3458 10.75 12.352 10.75 12.3581 10.75C12.3643 10.75 12.3705 10.75 12.3767 10.75C12.3829 10.75 12.3891 10.75 12.3953 10.75C12.4015 10.75 12.4077 10.75 12.4139 10.75C12.4201 10.75 12.4263 10.75 12.4325 10.75C12.4388 10.75 12.445 10.75 12.4512 10.75C12.4574 10.75 12.4637 10.75 12.4699 10.75C12.4761 10.75 12.4824 10.75 12.4886 10.75C12.4948 10.75 12.5011 10.75 12.5073 10.75C12.5136 10.75 12.5198 10.75 12.5261 10.75C12.5324 10.75 12.5386 10.75 12.5449 10.75C12.5511 10.75 12.5574 10.75 12.5637 10.75C12.57 10.75 12.5762 10.75 12.5825 10.75C12.5888 10.75 12.5951 10.75 12.6014 10.75C12.6077 10.75 12.6139 10.75 12.6202 10.75C12.6265 10.75 12.6328 10.75 12.6391 10.75C12.6454 10.75 12.6518 10.75 12.6581 10.75C12.6644 10.75 12.6707 10.75 12.677 10.75C12.6833 10.75 12.6897 10.75 12.696 10.75C12.7023 10.75 12.7086 10.75 12.715 10.75C12.7213 10.75 12.7276 10.75 12.734 10.75C12.7403 10.75 12.7467 10.75 12.753 10.75C12.7594 10.75 12.7657 10.75 12.7721 10.75C12.7784 10.75 12.7848 10.75 12.7912 10.75C12.7975 10.75 12.8039 10.75 12.8103 10.75C12.8167 10.75 12.823 10.75 12.8294 10.75C12.8358 10.75 12.8422 10.75 12.8486 10.75C12.855 10.75 12.8613 10.75 12.8677 10.75C12.8741 10.75 12.8805 10.75 12.8869 10.75C12.8933 10.75 12.8997 10.75 12.9062 10.75C12.9126 10.75 12.919 10.75 12.9254 10.75C12.9318 10.75 12.9382 10.75 12.9447 10.75C12.9511 10.75 12.9575 10.75 12.9639 10.75C12.9704 10.75 12.9768 10.75 12.9832 10.75C12.9897 10.75 12.9961 10.75 13.0026 10.75C13.009 10.75 13.0155 10.75 13.0219 10.75C13.0284 10.75 13.0348 10.75 13.0413 10.75C13.0478 10.75 13.0542 10.75 13.0607 10.75C13.0672 10.75 13.0736 10.75 13.0801 10.75C13.0866 10.75 13.0931 10.75 13.0995 10.75C13.106 10.75 13.1125 10.75 13.119 10.75C13.1255 10.75 13.132 10.75 13.1385 10.75C13.145 10.75 13.1515 10.75 13.158 10.75C13.1645 10.75 13.171 10.75 13.1775 10.75C13.184 10.75 13.1905 10.75 13.197 10.75C13.2036 10.75 13.2101 10.75 13.2166 10.75C13.2231 10.75 13.2297 10.75 13.2362 10.75C13.2427 10.75 13.2493 10.75 13.2558 10.75C13.2623 10.75 13.2689 10.75 13.2754 10.75C13.282 10.75 13.2885 10.75 13.2951 10.75C13.3016 10.75 13.3082 10.75 13.3147 10.75C13.3213 10.75 13.3279 10.75 13.3344 10.75C13.341 10.75 13.3476 10.75 13.3541 10.75C13.3607 10.75 13.3673 10.75 13.3739 10.75C13.3804 10.75 13.387 10.75 13.3936 10.75C13.4002 10.75 13.4068 10.75 13.4134 10.75C13.42 10.75 13.4266 10.75 13.4332 10.75C13.4398 10.75 13.4464 10.75 13.453 10.75C13.4596 10.75 13.4662 10.75 13.4728 10.75C13.4794 10.75 13.486 10.75 13.4926 10.75C13.4993 10.75 13.5059 10.75 13.5125 10.75C13.5191 10.75 13.5258 10.75 13.5324 10.75C13.539 10.75 13.5457 10.75 13.5523 10.75C13.5589 10.75 13.5656 10.75 13.5722 10.75C13.5789 10.75 13.5855 10.75 13.5922 10.75C13.5988 10.75 13.6055 10.75 13.6121 10.75C13.6188 10.75 13.6254 10.75 13.6321 10.75C13.6388 10.75 13.6454 10.75 13.6521 10.75C13.6588 10.75 13.6655 10.75 13.6721 10.75C13.6788 10.75 13.6855 10.75 13.6922 10.75C13.6989 10.75 13.7055 10.75 13.7122 10.75C13.7189 10.75 13.7256 10.75 13.7323 10.75C13.739 10.75 13.7457 10.75 13.7524 10.75C13.7591 10.75 13.7658 10.75 13.7725 10.75C13.7792 10.75 13.7859 10.75 13.7926 10.75C13.7994 10.75 13.8061 10.75 13.8128 10.75C13.8195 10.75 13.8262 10.75 13.833 10.75C13.8397 10.75 13.8464 10.75 13.8532 10.75C13.8599 10.75 13.8666 10.75 13.8734 10.75C13.8801 10.75 13.8868 10.75 13.8936 10.75C13.9003 10.75 13.9071 10.75 13.9138 10.75C13.9206 10.75 13.9273 10.75 13.9341 10.75C13.9408 10.75 13.9476 10.75 13.9544 10.75C13.9611 10.75 13.9679 10.75 13.9747 10.75C13.9814 10.75 13.9882 10.75 13.995 10.75C14.0017 10.75 14.0085 10.75 14.0153 10.75C14.0221 10.75 14.0289 10.75 14.0356 10.75C14.0424 10.75 14.0492 10.75 14.056 10.75C14.0628 10.75 14.0696 10.75 14.0764 10.75C14.0832 10.75 14.09 10.75 14.0968 10.75C14.1036 10.75 14.1104 10.75 14.1172 10.75C14.124 10.75 14.1308 10.75 14.1376 10.75C14.1444 10.75 14.1513 10.75 14.1581 10.75C14.1649 10.75 14.1717 10.75 14.1785 10.75C14.1854 10.75 14.1922 10.75 14.199 10.75C14.2059 10.75 14.2127 10.75 14.2195 10.75C14.2264 10.75 14.2332 10.75 14.2401 10.75C14.2469 10.75 14.2537 10.75 14.2606 10.75C14.2674 10.75 14.2743 10.75 14.2811 10.75C14.288 10.75 14.2948 10.75 14.3017 10.75C14.3086 10.75 14.3154 10.75 14.3223 10.75C14.3291 10.75 14.336 10.75 14.3429 10.75C14.3497 10.75 14.3566 10.75 14.3635 10.75C14.3704 10.75 14.3772 10.75 14.3841 10.75C14.391 10.75 14.3979 10.75 14.4048 10.75C14.4117 10.75 14.4185 10.75 14.4254 10.75C14.4323 10.75 14.4392 10.75 14.4461 10.75C14.453 10.75 14.4599 10.75 14.4668 10.75C14.4737 10.75 14.4806 10.75 14.4875 10.75C14.4944 10.75 14.5013 10.75 14.5082 10.75C14.5151 10.75 14.5221 10.75 14.529 10.75C14.5359 10.75 14.5428 10.75 14.5497 10.75C14.5567 10.75 14.5636 10.75 14.5705 10.75C14.5774 10.75 14.5844 10.75 14.5913 10.75C14.5982 10.75 14.6052 10.75 14.6121 10.75C14.619 10.75 14.626 10.75 14.6329 10.75C14.6398 10.75 14.6468 10.75 14.6537 10.75C14.6607 10.75 14.6676 10.75 14.6746 10.75C14.6815 10.75 14.6885 10.75 14.6954 10.75C14.7024 10.75 14.7094 10.75 14.7163 10.75C14.7233 10.75 14.7302 10.75 14.7372 10.75C14.7442 10.75 14.7511 10.75 14.7581 10.75C14.7651 10.75 14.7721 10.75 14.779 10.75C14.786 10.75 14.793 10.75 14.8 10.75C14.8069 10.75 14.8139 10.75 14.8209 10.75C14.8279 10.75 14.8349 10.75 14.8419 10.75C14.8489 10.75 14.8558 10.75 14.8628 10.75C14.8698 10.75 14.8768 10.75 14.8838 10.75C14.8908 10.75 14.8978 10.75 14.9048 10.75C14.9118 10.75 14.9188 10.75 14.9259 10.75C14.9329 10.75 14.9399 10.75 14.9469 10.75C14.9539 10.75 14.9609 10.75 14.9679 10.75C14.9749 10.75 14.982 10.75 14.989 10.75C14.996 10.75 15.003 10.75 15.0101 10.75C15.0171 10.75 15.0241 10.75 15.0311 10.75C15.0382 10.75 15.0452 10.75 15.0522 10.75C15.0593 10.75 15.0663 10.75 15.0733 10.75C15.0804 10.75 15.0874 10.75 15.0945 10.75C15.1015 10.75 15.1086 10.75 15.1156 10.75C15.1227 10.75 15.1297 10.75 15.1368 10.75C15.1438 10.75 15.1509 10.75 15.1579 10.75C15.165 10.75 15.172 10.75 15.1791 10.75C15.1862 10.75 15.1932 10.75 15.2003 10.75C15.2074 10.75 15.2144 10.75 15.2215 10.75C15.2286 10.75 15.2356 10.75 15.2427 10.75C15.2498 10.75 15.2568 10.75 15.2639 10.75C15.271 10.75 15.2781 10.75 15.2852 10.75C15.2922 10.75 15.2993 10.75 15.3064 10.75C15.3135 10.75 15.3206 10.75 15.3277 10.75C15.3348 10.75 15.3419 10.75 15.349 10.75C15.356 10.75 15.3631 10.75 15.3702 10.75C15.3773 10.75 15.3844 10.75 15.3915 10.75C15.3986 10.75 15.4057 10.75 15.4129 10.75C15.42 10.75 15.4271 10.75 15.4342 10.75C15.4413 10.75 15.4484 10.75 15.4555 10.75C15.4626 10.75 15.4697 10.75 15.4769 10.75C15.484 10.75 15.4911 10.75 15.4982 10.75C15.5053 10.75 15.5125 10.75 15.5196 10.75C15.5267 10.75 15.5338 10.75 15.541 10.75C15.5481 10.75 15.5552 10.75 15.5624 10.75C15.5695 10.75 15.5766 10.75 15.5838 10.75C15.5909 10.75 15.598 10.75 15.6052 10.75C15.6123 10.75 15.6195 10.75 15.6266 10.75C15.6337 10.75 15.6409 10.75 15.648 10.75C15.6552 10.75 15.6623 10.75 15.6695 10.75C15.6766 10.75 15.6838 10.75 15.6909 10.75C15.6981 10.75 15.7052 10.75 15.7124 10.75C15.7196 10.75 15.7267 10.75 15.7339 10.75C15.741 10.75 15.7482 10.75 15.7554 10.75C15.7625 10.75 15.7697 10.75 15.7769 10.75C15.784 10.75 15.7912 10.75 15.7984 10.75C15.8056 10.75 15.8127 10.75 15.8199 10.75C15.8271 10.75 15.8343 10.75 15.8414 10.75C15.8486 10.75 15.8558 10.75 15.863 10.75C15.8702 10.75 15.8773 10.75 15.8845 10.75C15.8917 10.75 15.8989 10.75 15.9061 10.75C15.9133 10.75 15.9205 10.75 15.9277 10.75C15.9348 10.75 15.942 10.75 15.9492 10.75C15.9564 10.75 15.9636 10.75 15.9708 10.75C15.978 10.75 15.9852 10.75 15.9924 10.75C15.9996 10.75 16.0068 10.75 16.014 10.75C16.0212 10.75 16.0284 10.75 16.0357 10.75C16.0429 10.75 16.0501 10.75 16.0573 10.75C16.0645 10.75 16.0717 10.75 16.0789 10.75C16.0861 10.75 16.0933 10.75 16.1006 10.75C16.1078 10.75 16.115 10.75 16.1222 10.75C16.1294 10.75 16.1367 10.75 16.1439 10.75C16.1511 10.75 16.1583 10.75 16.1656 10.75C16.1728 10.75 16.18 10.75 16.1872 10.75C16.1945 10.75 16.2017 10.75 16.2089 10.75C16.2162 10.75 16.2234 10.75 16.2306 10.75C16.2379 10.75 16.2451 10.75 16.2523 10.75C16.2596 10.75 16.2668 10.75 16.2741 10.75C16.2813 10.75 16.2885 10.75 16.2958 10.75C16.303 10.75 16.3103 10.75 16.3175 10.75C16.3248 10.75 16.332 10.75 16.3393 10.75C16.3465 10.75 16.3538 10.75 16.361 10.75C16.3683 10.75 16.3755 10.75 16.3828 10.75C16.39 10.75 16.3973 10.75 16.4045 10.75C16.4118 10.75 16.419 10.75 16.4263 10.75C16.4336 10.75 16.4408 10.75 16.4481 10.75C16.4553 10.75 16.4626 10.75 16.4699 10.75C16.4771 10.75 16.4844 10.75 16.4917 10.75C16.4989 10.75 16.5062 10.75 16.5135 10.75C16.5207 10.75 16.528 10.75 16.5353 10.75C16.5426 10.75 16.5498 10.75 16.5571 10.75C16.5644 10.75 16.5717 10.75 16.5789 10.75C16.5862 10.75 16.5935 10.75 16.6008 10.75C16.608 10.75 16.6153 10.75 16.6226 10.75C16.6299 10.75 16.6372 10.75 16.6445 10.75C16.6517 10.75 16.659 10.75 16.6663 10.75C16.6736 10.75 16.6809 10.75 16.6882 10.75C16.6955 10.75 16.7028 10.75 16.71 10.75C16.7173 10.75 16.7246 10.75 16.7319 10.75C16.7392 10.75 16.7465 10.75 16.7538 10.75C16.7611 10.75 16.7684 10.75 16.7757 10.75C16.783 10.75 16.7903 10.75 16.7976 10.75C16.8049 10.75 16.8122 10.75 16.8195 10.75C16.8268 10.75 16.8341 10.75 16.8414 10.75C16.8487 10.75 16.856 10.75 16.8633 10.75C16.8706 10.75 16.8779 10.75 16.8852 10.75C16.8925 10.75 16.8998 10.75 16.9072 10.75C16.9145 10.75 16.9218 10.75 16.9291 10.75C16.9364 10.75 16.9437 10.75 16.951 10.75C16.9583 10.75 16.9657 10.75 16.973 10.75C16.9803 10.75 16.9876 10.75 16.9949 10.75C17.0022 10.75 17.0096 10.75 17.0169 10.75C17.0242 10.75 17.0315 10.75 17.0388 10.75C17.0462 10.75 17.0535 10.75 17.0608 10.75C17.0681 10.75 17.0755 10.75 17.0828 10.75C17.0901 10.75 17.0974 10.75 17.1048 10.75C17.1121 10.75 17.1194 10.75 17.1267 10.75C17.1341 10.75 17.1414 10.75 17.1487 10.75C17.1561 10.75 17.1634 10.75 17.1707 10.75C17.178 10.75 17.1854 10.75 17.1927 10.75C17.2 10.75 17.2074 10.75 17.2147 10.75C17.222 10.75 17.2294 10.75 17.2367 10.75C17.2441 10.75 17.2514 10.75 17.2587 10.75C17.2661 10.75 17.2734 10.75 17.2808 10.75C17.2881 10.75 17.2954 10.75 17.3028 10.75C17.3101 10.75 17.3175 10.75 17.3248 10.75C17.3321 10.75 17.3395 10.75 17.3468 10.75C17.3542 10.75 17.3615 10.75 17.3689 10.75C17.3762 10.75 17.3836 10.75 17.3909 10.75C17.3982 10.75 17.4056 10.75 17.4129 10.75C17.4203 10.75 17.4276 10.75 17.435 10.75C17.4423 10.75 17.4497 10.75 17.457 10.75C17.4644 10.75 17.4717 10.75 17.4791 10.75C17.4864 10.75 17.4938 10.75 17.5012 10.75C17.5085 10.75 17.5159 10.75 17.5232 10.75C17.5306 10.75 17.5379 10.75 17.5453 10.75C17.5526 10.75 17.56 10.75 17.5673 10.75C17.5747 10.75 17.5821 10.75 17.5894 10.75C17.5968 10.75 17.6041 10.75 17.6115 10.75C17.6189 10.75 17.6262 10.75 17.6336 10.75C17.6409 10.75 17.6483 10.75 17.6557 10.75C17.663 10.75 17.6704 10.75 17.6777 10.75C17.6851 10.75 17.6925 10.75 17.6998 10.75C17.7072 10.75 17.7146 10.75 17.7219 10.75C17.7293 10.75 17.7367 10.75 17.744 10.75C17.7514 10.75 17.7587 10.75 17.7661 10.75C17.7735 10.75 17.7808 10.75 17.7882 10.75C17.7956 10.75 17.8029 10.75 17.8103 10.75C17.8177 10.75 17.825 10.75 17.8324 10.75C17.8398 10.75 17.8472 10.75 17.8545 10.75C17.8619 10.75 17.8693 10.75 17.8766 10.75C17.884 10.75 17.8914 10.75 17.8987 10.75C17.9061 10.75 17.9135 10.75 17.9209 10.75C17.9282 10.75 17.9356 10.75 17.943 10.75C17.9503 10.75 17.9577 10.75 17.9651 10.75C17.9725 10.75 17.9798 10.75 17.9872 10.75C17.9946 10.75 18.002 10.75 18.0093 10.75C18.0167 10.75 18.0241 10.75 18.0315 10.75C18.0388 10.75 18.0462 10.75 18.0536 10.75C18.061 10.75 18.0683 10.75 18.0757 10.75C18.0831 10.75 18.0905 10.75 18.0978 10.75C18.1052 10.75 18.1126 10.75 18.12 10.75C18.1273 10.75 18.1347 10.75 18.1421 10.75C18.1495 10.75 18.1569 10.75 18.1642 10.75C18.1716 10.75 18.179 10.75 18.1864 10.75C18.1937 10.75 18.2011 10.75 18.2085 10.75C18.2159 10.75 18.2233 10.75 18.2306 10.75C18.238 10.75 18.2454 10.75 18.2528 10.75C18.2602 10.75 18.2675 10.75 18.2749 10.75C18.2823 10.75 18.2897 10.75 18.297 10.75C18.3044 10.75 18.3118 10.75 18.3192 10.75C18.3266 10.75 18.3339 10.75 18.3413 10.75C18.3487 10.75 18.3561 10.75 18.3635 10.75C18.3708 10.75 18.3782 10.75 18.3856 10.75C18.393 10.75 18.4004 10.75 18.4077 10.75C18.4151 10.75 18.4225 10.75 18.4299 10.75C18.4373 10.75 18.4446 10.75 18.452 10.75C18.4594 10.75 18.4668 10.75 18.4742 10.75C18.4815 10.75 18.4889 10.75 18.4963 10.75C18.5037 10.75 18.5111 10.75 18.5185 10.75C18.5258 10.75 18.5332 10.75 18.5406 10.75C18.548 10.75 18.5554 10.75 18.5627 10.75C18.5701 10.75 18.5775 10.75 18.5849 10.75C18.5923 10.75 18.5996 10.75 18.607 10.75C18.6144 10.75 18.6218 10.75 18.6292 10.75C18.6365 10.75 18.6439 10.75 18.6513 10.75C18.6587 10.75 18.666 10.75 18.6734 10.75C18.6808 10.75 18.6882 10.75 18.6956 10.75C18.7029 10.75 18.7103 10.75 18.7177 10.75C18.7251 10.75 18.7325 10.75 18.7398 10.75C18.7472 10.75 18.7546 10.75 18.762 10.75C18.7693 10.75 18.7767 10.75 18.7841 10.75C18.7915 10.75 18.7989 10.75 18.8062 10.75C18.8136 10.75 18.821 10.75 18.8284 10.75C18.8357 10.75 18.8431 10.75 18.8505 10.75C18.8579 10.75 18.8652 10.75 18.8726 10.75C18.88 10.75 18.8874 10.75 18.8947 10.75C18.9021 10.75 18.9095 10.75 18.9169 10.75C18.9242 10.75 18.9316 10.75 18.939 10.75C18.9464 10.75 18.9537 10.75 18.9611 10.75C18.9685 10.75 18.9759 10.75 18.9832 10.75C18.9906 10.75 18.998 10.75 19.0054 10.75C19.0127 10.75 19.0201 10.75 19.0275 10.75C19.0348 10.75 19.0422 10.75 19.0496 10.75C19.057 10.75 19.0643 10.75 19.0717 10.75C19.0791 10.75 19.0864 10.75 19.0938 10.75C19.1012 10.75 19.1085 10.75 19.1159 10.75C19.1233 10.75 19.1306 10.75 19.138 10.75C19.1454 10.75 19.1527 10.75 19.1601 10.75C19.1675 10.75 19.1748 10.75 19.1822 10.75C19.1896 10.75 19.1969 10.75 19.2043 10.75C19.2117 10.75 19.219 10.75 19.2264 10.75C19.2338 10.75 19.2411 10.75 19.2485 10.75C19.2559 10.75 19.2632 10.75 19.2706 10.75C19.2779 10.75 19.2853 10.75 19.2927 10.75C19.3 10.75 19.3074 10.75 19.3147 10.75C19.3221 10.75 19.3295 10.75 19.3368 10.75C19.3442 10.75 19.3515 10.75 19.3589 10.75C19.3663 10.75 19.3736 10.75 19.381 10.75C19.3883 10.75 19.3957 10.75 19.403 10.75C19.4104 10.75 19.4177 10.75 19.4251 10.75C19.4325 10.75 19.4398 10.75 19.4472 10.75C19.4545 10.75 19.4619 10.75 19.4692 10.75C19.4766 10.75 19.4839 10.75 19.4913 10.75C19.4986 10.75 19.506 10.75 19.5133 10.75C19.5207 10.75 19.528 10.75 19.5354 10.75C19.5427 10.75 19.5501 10.75 19.5574 10.75C19.5648 10.75 19.5721 10.75 19.5794 10.75C19.5868 10.75 19.5941 10.75 19.6015 10.75C19.6088 10.75 19.6162 10.75 19.6235 10.75C19.6308 10.75 19.6382 10.75 19.6455 10.75C19.6529 10.75 19.6602 10.75 19.6676 10.75C19.6749 10.75 19.6822 10.75 19.6896 10.75C19.6969 10.75 19.7042 10.75 19.7116 10.75C19.7189 10.75 19.7262 10.75 19.7336 10.75C19.7409 10.75 19.7482 10.75 19.7556 10.75C19.7629 10.75 19.7702 10.75 19.7776 10.75C19.7849 10.75 19.7922 10.75 19.7996 10.75C19.8069 10.75 19.8142 10.75 19.8216 10.75C19.8289 10.75 19.8362 10.75 19.8435 10.75C19.8509 10.75 19.8582 10.75 19.8655 10.75C19.8728 10.75 19.8802 10.75 19.8875 10.75C19.8948 10.75 19.9021 10.75 19.9094 10.75C19.9168 10.75 19.9241 10.75 19.9314 10.75C19.9387 10.75 19.946 10.75 19.9534 10.75C19.9607 10.75 19.968 10.75 19.9753 10.75C19.9826 10.75 19.9899 10.75 19.9973 10.75C20.0046 10.75 20.0119 10.75 20.0192 10.75C20.0265 10.75 20.0338 10.75 20.0411 10.75C20.0484 10.75 20.0557 10.75 20.063 10.75C20.0703 10.75 20.0777 10.75 20.085 10.75C20.0923 10.75 20.0996 10.75 20.1069 10.75C20.1142 10.75 20.1215 10.75 20.1288 10.75C20.1361 10.75 20.1434 10.75 20.1507 10.75C20.158 10.75 20.1653 10.75 20.1726 10.75C20.1799 10.75 20.1872 10.75 20.1945 10.75C20.2018 10.75 20.209 10.75 20.2163 10.75C20.2236 10.75 20.2309 10.75 20.2382 10.75C20.2455 10.75 20.2528 10.75 20.2601 10.75C20.2674 10.75 20.2747 10.75 20.2819 10.75C20.2892 10.75 20.2965 10.75 20.3038 10.75C20.3111 10.75 20.3184 10.75 20.3256 10.75C20.3329 10.75 20.3402 10.75 20.3475 10.75C20.3548 10.75 20.362 10.75 20.3693 10.75C20.3766 10.75 20.3839 10.75 20.3911 10.75C20.3984 10.75 20.4057 10.75 20.413 10.75C20.4202 10.75 20.4275 10.75 20.4348 10.75C20.442 10.75 20.4493 10.75 20.4566 10.75C20.4638 10.75 20.4711 10.75 20.4784 10.75C20.4856 10.75 20.4929 10.75 20.5001 10.75C20.5074 10.75 20.5147 10.75 20.5219 10.75C20.5292 10.75 20.5364 10.75 20.5437 10.75C20.551 10.75 20.5582 10.75 20.5655 10.75C20.5727 10.75 20.58 10.75 20.5872 10.75C20.5945 10.75 20.6017 10.75 20.609 10.75C20.6162 10.75 20.6235 10.75 20.6307 10.75C20.6379 10.75 20.6452 10.75 20.6524 10.75C20.6597 10.75 20.6669 10.75 20.6742 10.75C20.6814 10.75 20.6886 10.75 20.6959 10.75C20.7031 10.75 20.7103 10.75 20.7176 10.75C20.7248 10.75 20.732 10.75 20.7393 10.75C20.7465 10.75 20.7537 10.75 20.761 10.75C20.7682 10.75 20.7754 10.75 20.7826 10.75C20.7899 10.75 20.7971 10.75 20.8043 10.75C20.8115 10.75 20.8188 10.75 20.826 10.75C20.8332 10.75 20.8404 10.75 20.8476 10.75C20.8548 10.75 20.8621 10.75 20.8693 10.75C20.8765 10.75 20.8837 10.75 20.8909 10.75C20.8981 10.75 20.9053 10.75 20.9125 10.75C20.9197 10.75 20.9269 10.75 20.9341 10.75C20.9413 10.75 20.9486 10.75 20.9558 10.75C20.963 10.75 20.9702 10.75 20.9773 10.75C20.9845 10.75 20.9917 10.75 20.9989 10.75C21.0061 10.75 21.0133 10.75 21.0205 10.75C21.0277 10.75 21.0349 10.75 21.0421 10.75C21.0493 10.75 21.0565 10.75 21.0636 10.75C21.0708 10.75 21.078 10.75 21.0852 10.75C21.0924 10.75 21.0995 10.75 21.1067 10.75C21.1139 10.75 21.1211 10.75 21.1283 10.75C21.1354 10.75 21.1426 10.75 21.1498 10.75C21.1569 10.75 21.1641 10.75 21.1713 10.75C21.1784 10.75 21.1856 10.75 21.1928 10.75C21.1999 10.75 21.2071 10.75 21.2143 10.75C21.2214 10.75 21.2286 10.75 21.2357 10.75C21.2429 10.75 21.25 10.75 21.2572 10.75C21.2644 10.75 21.2715 10.75 21.2787 10.75C21.2858 10.75 21.293 10.75 21.3001 10.75C21.3072 10.75 21.3144 10.75 21.3215 10.75C21.3287 10.75 21.3358 10.75 21.343 10.75C21.3501 10.75 21.3572 10.75 21.3644 10.75C21.3715 10.75 21.3786 10.75 21.3858 10.75C21.3929 10.75 21.4 10.75 21.4072 10.75C21.4143 10.75 21.4214 10.75 21.4285 10.75C21.4357 10.75 21.4428 10.75 21.4499 10.75C21.457 10.75 21.4641 10.75 21.4712 10.75C21.4784 10.75 21.4855 10.75 21.4926 10.75C21.4997 10.75 21.5068 10.75 21.5139 10.75C21.521 10.75 21.5281 10.75 21.5352 10.75C21.5423 10.75 21.5494 10.75 21.5565 10.75C21.5637 10.75 21.5707 10.75 21.5778 10.75C21.5849 10.75 21.592 10.75 21.5991 10.75C21.6062 10.75 21.6133 10.75 21.6204 10.75C21.6275 10.75 21.6346 10.75 21.6417 10.75C21.6487 10.75 21.6558 10.75 21.6629 10.75C21.67 10.75 21.6771 10.75 21.6841 10.75C21.6912 10.75 21.6983 10.75 21.7054 10.75C21.7124 10.75 21.7195 10.75 21.7266 10.75C21.7336 10.75 21.7407 10.75 21.7478 10.75C21.7548 10.75 21.7619 10.75 21.769 10.75C21.776 10.75 21.7831 10.75 21.7901 10.75C21.7972 10.75 21.8042 10.75 21.8113 10.75C21.8183 10.75 21.8254 10.75 21.8324 10.75C21.8395 10.75 21.8465 10.75 21.8536 10.75C21.8606 10.75 21.8676 10.75 21.8747 10.75V10V9.25C21.8676 9.25 21.8606 9.25 21.8536 9.25C21.8465 9.25 21.8395 9.25 21.8324 9.25C21.8254 9.25 21.8183 9.25 21.8113 9.25C21.8042 9.25 21.7972 9.25 21.7901 9.25C21.7831 9.25 21.776 9.25 21.769 9.25C21.7619 9.25 21.7548 9.25 21.7478 9.25C21.7407 9.25 21.7336 9.25 21.7266 9.25C21.7195 9.25 21.7124 9.25 21.7054 9.25C21.6983 9.25 21.6912 9.25 21.6841 9.25C21.6771 9.25 21.67 9.25 21.6629 9.25C21.6558 9.25 21.6487 9.25 21.6417 9.25C21.6346 9.25 21.6275 9.25 21.6204 9.25C21.6133 9.25 21.6062 9.25 21.5991 9.25C21.592 9.25 21.5849 9.25 21.5778 9.25C21.5707 9.25 21.5637 9.25 21.5565 9.25C21.5494 9.25 21.5423 9.25 21.5352 9.25C21.5281 9.25 21.521 9.25 21.5139 9.25C21.5068 9.25 21.4997 9.25 21.4926 9.25C21.4855 9.25 21.4784 9.25 21.4712 9.25C21.4641 9.25 21.457 9.25 21.4499 9.25C21.4428 9.25 21.4357 9.25 21.4285 9.25C21.4214 9.25 21.4143 9.25 21.4072 9.25C21.4 9.25 21.3929 9.25 21.3858 9.25C21.3786 9.25 21.3715 9.25 21.3644 9.25C21.3572 9.25 21.3501 9.25 21.343 9.25C21.3358 9.25 21.3287 9.25 21.3215 9.25C21.3144 9.25 21.3072 9.25 21.3001 9.25C21.293 9.25 21.2858 9.25 21.2787 9.25C21.2715 9.25 21.2644 9.25 21.2572 9.25C21.25 9.25 21.2429 9.25 21.2357 9.25C21.2286 9.25 21.2214 9.25 21.2143 9.25C21.2071 9.25 21.1999 9.25 21.1928 9.25C21.1856 9.25 21.1784 9.25 21.1713 9.25C21.1641 9.25 21.1569 9.25 21.1498 9.25C21.1426 9.25 21.1354 9.25 21.1283 9.25C21.1211 9.25 21.1139 9.25 21.1067 9.25C21.0995 9.25 21.0924 9.25 21.0852 9.25C21.078 9.25 21.0708 9.25 21.0636 9.25C21.0565 9.25 21.0493 9.25 21.0421 9.25C21.0349 9.25 21.0277 9.25 21.0205 9.25C21.0133 9.25 21.0061 9.25 20.9989 9.25C20.9917 9.25 20.9845 9.25 20.9773 9.25C20.9702 9.25 20.963 9.25 20.9558 9.25C20.9486 9.25 20.9413 9.25 20.9341 9.25C20.9269 9.25 20.9197 9.25 20.9125 9.25C20.9053 9.25 20.8981 9.25 20.8909 9.25C20.8837 9.25 20.8765 9.25 20.8693 9.25C20.8621 9.25 20.8548 9.25 20.8476 9.25C20.8404 9.25 20.8332 9.25 20.826 9.25C20.8188 9.25 20.8115 9.25 20.8043 9.25C20.7971 9.25 20.7899 9.25 20.7826 9.25C20.7754 9.25 20.7682 9.25 20.761 9.25C20.7537 9.25 20.7465 9.25 20.7393 9.25C20.732 9.25 20.7248 9.25 20.7176 9.25C20.7103 9.25 20.7031 9.25 20.6959 9.25C20.6886 9.25 20.6814 9.25 20.6742 9.25C20.6669 9.25 20.6597 9.25 20.6524 9.25C20.6452 9.25 20.6379 9.25 20.6307 9.25C20.6235 9.25 20.6162 9.25 20.609 9.25C20.6017 9.25 20.5945 9.25 20.5872 9.25C20.58 9.25 20.5727 9.25 20.5655 9.25C20.5582 9.25 20.551 9.25 20.5437 9.25C20.5364 9.25 20.5292 9.25 20.5219 9.25C20.5147 9.25 20.5074 9.25 20.5001 9.25C20.4929 9.25 20.4856 9.25 20.4784 9.25C20.4711 9.25 20.4638 9.25 20.4566 9.25C20.4493 9.25 20.442 9.25 20.4348 9.25C20.4275 9.25 20.4202 9.25 20.413 9.25C20.4057 9.25 20.3984 9.25 20.3911 9.25C20.3839 9.25 20.3766 9.25 20.3693 9.25C20.362 9.25 20.3548 9.25 20.3475 9.25C20.3402 9.25 20.3329 9.25 20.3256 9.25C20.3184 9.25 20.3111 9.25 20.3038 9.25C20.2965 9.25 20.2892 9.25 20.2819 9.25C20.2747 9.25 20.2674 9.25 20.2601 9.25C20.2528 9.25 20.2455 9.25 20.2382 9.25C20.2309 9.25 20.2236 9.25 20.2163 9.25C20.209 9.25 20.2018 9.25 20.1945 9.25C20.1872 9.25 20.1799 9.25 20.1726 9.25C20.1653 9.25 20.158 9.25 20.1507 9.25C20.1434 9.25 20.1361 9.25 20.1288 9.25C20.1215 9.25 20.1142 9.25 20.1069 9.25C20.0996 9.25 20.0923 9.25 20.085 9.25C20.0777 9.25 20.0703 9.25 20.063 9.25C20.0557 9.25 20.0484 9.25 20.0411 9.25C20.0338 9.25 20.0265 9.25 20.0192 9.25C20.0119 9.25 20.0046 9.25 19.9973 9.25C19.9899 9.25 19.9826 9.25 19.9753 9.25C19.968 9.25 19.9607 9.25 19.9534 9.25C19.946 9.25 19.9387 9.25 19.9314 9.25C19.9241 9.25 19.9168 9.25 19.9094 9.25C19.9021 9.25 19.8948 9.25 19.8875 9.25C19.8802 9.25 19.8728 9.25 19.8655 9.25C19.8582 9.25 19.8509 9.25 19.8435 9.25C19.8362 9.25 19.8289 9.25 19.8216 9.25C19.8142 9.25 19.8069 9.25 19.7996 9.25C19.7922 9.25 19.7849 9.25 19.7776 9.25C19.7702 9.25 19.7629 9.25 19.7556 9.25C19.7482 9.25 19.7409 9.25 19.7336 9.25C19.7262 9.25 19.7189 9.25 19.7116 9.25C19.7042 9.25 19.6969 9.25 19.6896 9.25C19.6822 9.25 19.6749 9.25 19.6676 9.25C19.6602 9.25 19.6529 9.25 19.6455 9.25C19.6382 9.25 19.6308 9.25 19.6235 9.25C19.6162 9.25 19.6088 9.25 19.6015 9.25C19.5941 9.25 19.5868 9.25 19.5794 9.25C19.5721 9.25 19.5648 9.25 19.5574 9.25C19.5501 9.25 19.5427 9.25 19.5354 9.25C19.528 9.25 19.5207 9.25 19.5133 9.25C19.506 9.25 19.4986 9.25 19.4913 9.25C19.4839 9.25 19.4766 9.25 19.4692 9.25C19.4619 9.25 19.4545 9.25 19.4472 9.25C19.4398 9.25 19.4325 9.25 19.4251 9.25C19.4177 9.25 19.4104 9.25 19.403 9.25C19.3957 9.25 19.3883 9.25 19.381 9.25C19.3736 9.25 19.3663 9.25 19.3589 9.25C19.3515 9.25 19.3442 9.25 19.3368 9.25C19.3295 9.25 19.3221 9.25 19.3147 9.25C19.3074 9.25 19.3 9.25 19.2927 9.25C19.2853 9.25 19.2779 9.25 19.2706 9.25C19.2632 9.25 19.2559 9.25 19.2485 9.25C19.2411 9.25 19.2338 9.25 19.2264 9.25C19.219 9.25 19.2117 9.25 19.2043 9.25C19.1969 9.25 19.1896 9.25 19.1822 9.25C19.1748 9.25 19.1675 9.25 19.1601 9.25C19.1527 9.25 19.1454 9.25 19.138 9.25C19.1306 9.25 19.1233 9.25 19.1159 9.25C19.1085 9.25 19.1012 9.25 19.0938 9.25C19.0864 9.25 19.0791 9.25 19.0717 9.25C19.0643 9.25 19.057 9.25 19.0496 9.25C19.0422 9.25 19.0348 9.25 19.0275 9.25C19.0201 9.25 19.0127 9.25 19.0054 9.25C18.998 9.25 18.9906 9.25 18.9832 9.25C18.9759 9.25 18.9685 9.25 18.9611 9.25C18.9537 9.25 18.9464 9.25 18.939 9.25C18.9316 9.25 18.9242 9.25 18.9169 9.25C18.9095 9.25 18.9021 9.25 18.8947 9.25C18.8874 9.25 18.88 9.25 18.8726 9.25C18.8652 9.25 18.8579 9.25 18.8505 9.25C18.8431 9.25 18.8357 9.25 18.8284 9.25C18.821 9.25 18.8136 9.25 18.8062 9.25C18.7989 9.25 18.7915 9.25 18.7841 9.25C18.7767 9.25 18.7693 9.25 18.762 9.25C18.7546 9.25 18.7472 9.25 18.7398 9.25C18.7325 9.25 18.7251 9.25 18.7177 9.25C18.7103 9.25 18.7029 9.25 18.6956 9.25C18.6882 9.25 18.6808 9.25 18.6734 9.25C18.666 9.25 18.6587 9.25 18.6513 9.25C18.6439 9.25 18.6365 9.25 18.6292 9.25C18.6218 9.25 18.6144 9.25 18.607 9.25C18.5996 9.25 18.5923 9.25 18.5849 9.25C18.5775 9.25 18.5701 9.25 18.5627 9.25C18.5554 9.25 18.548 9.25 18.5406 9.25C18.5332 9.25 18.5258 9.25 18.5185 9.25C18.5111 9.25 18.5037 9.25 18.4963 9.25C18.4889 9.25 18.4815 9.25 18.4742 9.25C18.4668 9.25 18.4594 9.25 18.452 9.25C18.4446 9.25 18.4373 9.25 18.4299 9.25C18.4225 9.25 18.4151 9.25 18.4077 9.25C18.4004 9.25 18.393 9.25 18.3856 9.25C18.3782 9.25 18.3708 9.25 18.3635 9.25C18.3561 9.25 18.3487 9.25 18.3413 9.25C18.3339 9.25 18.3266 9.25 18.3192 9.25C18.3118 9.25 18.3044 9.25 18.297 9.25C18.2897 9.25 18.2823 9.25 18.2749 9.25C18.2675 9.25 18.2602 9.25 18.2528 9.25C18.2454 9.25 18.238 9.25 18.2306 9.25C18.2233 9.25 18.2159 9.25 18.2085 9.25C18.2011 9.25 18.1937 9.25 18.1864 9.25C18.179 9.25 18.1716 9.25 18.1642 9.25C18.1569 9.25 18.1495 9.25 18.1421 9.25C18.1347 9.25 18.1273 9.25 18.12 9.25C18.1126 9.25 18.1052 9.25 18.0978 9.25C18.0905 9.25 18.0831 9.25 18.0757 9.25C18.0683 9.25 18.061 9.25 18.0536 9.25C18.0462 9.25 18.0388 9.25 18.0315 9.25C18.0241 9.25 18.0167 9.25 18.0093 9.25C18.002 9.25 17.9946 9.25 17.9872 9.25C17.9798 9.25 17.9725 9.25 17.9651 9.25C17.9577 9.25 17.9503 9.25 17.943 9.25C17.9356 9.25 17.9282 9.25 17.9209 9.25C17.9135 9.25 17.9061 9.25 17.8987 9.25C17.8914 9.25 17.884 9.25 17.8766 9.25C17.8693 9.25 17.8619 9.25 17.8545 9.25C17.8472 9.25 17.8398 9.25 17.8324 9.25C17.825 9.25 17.8177 9.25 17.8103 9.25C17.8029 9.25 17.7956 9.25 17.7882 9.25C17.7808 9.25 17.7735 9.25 17.7661 9.25C17.7587 9.25 17.7514 9.25 17.744 9.25C17.7367 9.25 17.7293 9.25 17.7219 9.25C17.7146 9.25 17.7072 9.25 17.6998 9.25C17.6925 9.25 17.6851 9.25 17.6777 9.25C17.6704 9.25 17.663 9.25 17.6557 9.25C17.6483 9.25 17.6409 9.25 17.6336 9.25C17.6262 9.25 17.6189 9.25 17.6115 9.25C17.6041 9.25 17.5968 9.25 17.5894 9.25C17.5821 9.25 17.5747 9.25 17.5673 9.25C17.56 9.25 17.5526 9.25 17.5453 9.25C17.5379 9.25 17.5306 9.25 17.5232 9.25C17.5159 9.25 17.5085 9.25 17.5012 9.25C17.4938 9.25 17.4864 9.25 17.4791 9.25C17.4717 9.25 17.4644 9.25 17.457 9.25C17.4497 9.25 17.4423 9.25 17.435 9.25C17.4276 9.25 17.4203 9.25 17.4129 9.25C17.4056 9.25 17.3982 9.25 17.3909 9.25C17.3836 9.25 17.3762 9.25 17.3689 9.25C17.3615 9.25 17.3542 9.25 17.3468 9.25C17.3395 9.25 17.3321 9.25 17.3248 9.25C17.3175 9.25 17.3101 9.25 17.3028 9.25C17.2954 9.25 17.2881 9.25 17.2808 9.25C17.2734 9.25 17.2661 9.25 17.2587 9.25C17.2514 9.25 17.2441 9.25 17.2367 9.25C17.2294 9.25 17.222 9.25 17.2147 9.25C17.2074 9.25 17.2 9.25 17.1927 9.25C17.1854 9.25 17.178 9.25 17.1707 9.25C17.1634 9.25 17.1561 9.25 17.1487 9.25C17.1414 9.25 17.1341 9.25 17.1267 9.25C17.1194 9.25 17.1121 9.25 17.1048 9.25C17.0974 9.25 17.0901 9.25 17.0828 9.25C17.0755 9.25 17.0681 9.25 17.0608 9.25C17.0535 9.25 17.0462 9.25 17.0388 9.25C17.0315 9.25 17.0242 9.25 17.0169 9.25C17.0096 9.25 17.0022 9.25 16.9949 9.25C16.9876 9.25 16.9803 9.25 16.973 9.25C16.9657 9.25 16.9583 9.25 16.951 9.25C16.9437 9.25 16.9364 9.25 16.9291 9.25C16.9218 9.25 16.9145 9.25 16.9072 9.25C16.8998 9.25 16.8925 9.25 16.8852 9.25C16.8779 9.25 16.8706 9.25 16.8633 9.25C16.856 9.25 16.8487 9.25 16.8414 9.25C16.8341 9.25 16.8268 9.25 16.8195 9.25C16.8122 9.25 16.8049 9.25 16.7976 9.25C16.7903 9.25 16.783 9.25 16.7757 9.25C16.7684 9.25 16.7611 9.25 16.7538 9.25C16.7465 9.25 16.7392 9.25 16.7319 9.25C16.7246 9.25 16.7173 9.25 16.71 9.25C16.7028 9.25 16.6955 9.25 16.6882 9.25C16.6809 9.25 16.6736 9.25 16.6663 9.25C16.659 9.25 16.6517 9.25 16.6445 9.25C16.6372 9.25 16.6299 9.25 16.6226 9.25C16.6153 9.25 16.608 9.25 16.6008 9.25C16.5935 9.25 16.5862 9.25 16.5789 9.25C16.5717 9.25 16.5644 9.25 16.5571 9.25C16.5498 9.25 16.5426 9.25 16.5353 9.25C16.528 9.25 16.5207 9.25 16.5135 9.25C16.5062 9.25 16.4989 9.25 16.4917 9.25C16.4844 9.25 16.4771 9.25 16.4699 9.25C16.4626 9.25 16.4553 9.25 16.4481 9.25C16.4408 9.25 16.4336 9.25 16.4263 9.25C16.419 9.25 16.4118 9.25 16.4045 9.25C16.3973 9.25 16.39 9.25 16.3828 9.25C16.3755 9.25 16.3683 9.25 16.361 9.25C16.3538 9.25 16.3465 9.25 16.3393 9.25C16.332 9.25 16.3248 9.25 16.3175 9.25C16.3103 9.25 16.303 9.25 16.2958 9.25C16.2885 9.25 16.2813 9.25 16.2741 9.25C16.2668 9.25 16.2596 9.25 16.2523 9.25C16.2451 9.25 16.2379 9.25 16.2306 9.25C16.2234 9.25 16.2162 9.25 16.2089 9.25C16.2017 9.25 16.1945 9.25 16.1872 9.25C16.18 9.25 16.1728 9.25 16.1656 9.25C16.1583 9.25 16.1511 9.25 16.1439 9.25C16.1367 9.25 16.1294 9.25 16.1222 9.25C16.115 9.25 16.1078 9.25 16.1006 9.25C16.0933 9.25 16.0861 9.25 16.0789 9.25C16.0717 9.25 16.0645 9.25 16.0573 9.25C16.0501 9.25 16.0429 9.25 16.0357 9.25C16.0284 9.25 16.0212 9.25 16.014 9.25C16.0068 9.25 15.9996 9.25 15.9924 9.25C15.9852 9.25 15.978 9.25 15.9708 9.25C15.9636 9.25 15.9564 9.25 15.9492 9.25C15.942 9.25 15.9348 9.25 15.9277 9.25C15.9205 9.25 15.9133 9.25 15.9061 9.25C15.8989 9.25 15.8917 9.25 15.8845 9.25C15.8773 9.25 15.8702 9.25 15.863 9.25C15.8558 9.25 15.8486 9.25 15.8414 9.25C15.8343 9.25 15.8271 9.25 15.8199 9.25C15.8127 9.25 15.8056 9.25 15.7984 9.25C15.7912 9.25 15.784 9.25 15.7769 9.25C15.7697 9.25 15.7625 9.25 15.7554 9.25C15.7482 9.25 15.741 9.25 15.7339 9.25C15.7267 9.25 15.7196 9.25 15.7124 9.25C15.7052 9.25 15.6981 9.25 15.6909 9.25C15.6838 9.25 15.6766 9.25 15.6695 9.25C15.6623 9.25 15.6552 9.25 15.648 9.25C15.6409 9.25 15.6337 9.25 15.6266 9.25C15.6195 9.25 15.6123 9.25 15.6052 9.25C15.598 9.25 15.5909 9.25 15.5838 9.25C15.5766 9.25 15.5695 9.25 15.5624 9.25C15.5552 9.25 15.5481 9.25 15.541 9.25C15.5338 9.25 15.5267 9.25 15.5196 9.25C15.5125 9.25 15.5053 9.25 15.4982 9.25C15.4911 9.25 15.484 9.25 15.4769 9.25C15.4697 9.25 15.4626 9.25 15.4555 9.25C15.4484 9.25 15.4413 9.25 15.4342 9.25C15.4271 9.25 15.42 9.25 15.4129 9.25C15.4057 9.25 15.3986 9.25 15.3915 9.25C15.3844 9.25 15.3773 9.25 15.3702 9.25C15.3631 9.25 15.356 9.25 15.349 9.25C15.3419 9.25 15.3348 9.25 15.3277 9.25C15.3206 9.25 15.3135 9.25 15.3064 9.25C15.2993 9.25 15.2922 9.25 15.2852 9.25C15.2781 9.25 15.271 9.25 15.2639 9.25C15.2568 9.25 15.2498 9.25 15.2427 9.25C15.2356 9.25 15.2286 9.25 15.2215 9.25C15.2144 9.25 15.2074 9.25 15.2003 9.25C15.1932 9.25 15.1862 9.25 15.1791 9.25C15.172 9.25 15.165 9.25 15.1579 9.25C15.1509 9.25 15.1438 9.25 15.1368 9.25C15.1297 9.25 15.1227 9.25 15.1156 9.25C15.1086 9.25 15.1015 9.25 15.0945 9.25C15.0874 9.25 15.0804 9.25 15.0733 9.25C15.0663 9.25 15.0593 9.25 15.0522 9.25C15.0452 9.25 15.0382 9.25 15.0311 9.25C15.0241 9.25 15.0171 9.25 15.0101 9.25C15.003 9.25 14.996 9.25 14.989 9.25C14.982 9.25 14.9749 9.25 14.9679 9.25C14.9609 9.25 14.9539 9.25 14.9469 9.25C14.9399 9.25 14.9329 9.25 14.9259 9.25C14.9188 9.25 14.9118 9.25 14.9048 9.25C14.8978 9.25 14.8908 9.25 14.8838 9.25C14.8768 9.25 14.8698 9.25 14.8628 9.25C14.8558 9.25 14.8489 9.25 14.8419 9.25C14.8349 9.25 14.8279 9.25 14.8209 9.25C14.8139 9.25 14.8069 9.25 14.8 9.25C14.793 9.25 14.786 9.25 14.779 9.25C14.7721 9.25 14.7651 9.25 14.7581 9.25C14.7511 9.25 14.7442 9.25 14.7372 9.25C14.7302 9.25 14.7233 9.25 14.7163 9.25C14.7094 9.25 14.7024 9.25 14.6954 9.25C14.6885 9.25 14.6815 9.25 14.6746 9.25C14.6676 9.25 14.6607 9.25 14.6537 9.25C14.6468 9.25 14.6398 9.25 14.6329 9.25C14.626 9.25 14.619 9.25 14.6121 9.25C14.6052 9.25 14.5982 9.25 14.5913 9.25C14.5844 9.25 14.5774 9.25 14.5705 9.25C14.5636 9.25 14.5567 9.25 14.5497 9.25C14.5428 9.25 14.5359 9.25 14.529 9.25C14.5221 9.25 14.5151 9.25 14.5082 9.25C14.5013 9.25 14.4944 9.25 14.4875 9.25C14.4806 9.25 14.4737 9.25 14.4668 9.25C14.4599 9.25 14.453 9.25 14.4461 9.25C14.4392 9.25 14.4323 9.25 14.4254 9.25C14.4185 9.25 14.4117 9.25 14.4048 9.25C14.3979 9.25 14.391 9.25 14.3841 9.25C14.3772 9.25 14.3704 9.25 14.3635 9.25C14.3566 9.25 14.3497 9.25 14.3429 9.25C14.336 9.25 14.3291 9.25 14.3223 9.25C14.3154 9.25 14.3086 9.25 14.3017 9.25C14.2948 9.25 14.288 9.25 14.2811 9.25C14.2743 9.25 14.2674 9.25 14.2606 9.25C14.2537 9.25 14.2469 9.25 14.2401 9.25C14.2332 9.25 14.2264 9.25 14.2195 9.25C14.2127 9.25 14.2059 9.25 14.199 9.25C14.1922 9.25 14.1854 9.25 14.1785 9.25C14.1717 9.25 14.1649 9.25 14.1581 9.25C14.1513 9.25 14.1444 9.25 14.1376 9.25C14.1308 9.25 14.124 9.25 14.1172 9.25C14.1104 9.25 14.1036 9.25 14.0968 9.25C14.09 9.25 14.0832 9.25 14.0764 9.25C14.0696 9.25 14.0628 9.25 14.056 9.25C14.0492 9.25 14.0424 9.25 14.0356 9.25C14.0289 9.25 14.0221 9.25 14.0153 9.25C14.0085 9.25 14.0017 9.25 13.995 9.25C13.9882 9.25 13.9814 9.25 13.9747 9.25C13.9679 9.25 13.9611 9.25 13.9544 9.25C13.9476 9.25 13.9408 9.25 13.9341 9.25C13.9273 9.25 13.9206 9.25 13.9138 9.25C13.9071 9.25 13.9003 9.25 13.8936 9.25C13.8868 9.25 13.8801 9.25 13.8734 9.25C13.8666 9.25 13.8599 9.25 13.8532 9.25C13.8464 9.25 13.8397 9.25 13.833 9.25C13.8262 9.25 13.8195 9.25 13.8128 9.25C13.8061 9.25 13.7994 9.25 13.7926 9.25C13.7859 9.25 13.7792 9.25 13.7725 9.25C13.7658 9.25 13.7591 9.25 13.7524 9.25C13.7457 9.25 13.739 9.25 13.7323 9.25C13.7256 9.25 13.7189 9.25 13.7122 9.25C13.7055 9.25 13.6989 9.25 13.6922 9.25C13.6855 9.25 13.6788 9.25 13.6721 9.25C13.6655 9.25 13.6588 9.25 13.6521 9.25C13.6454 9.25 13.6388 9.25 13.6321 9.25C13.6254 9.25 13.6188 9.25 13.6121 9.25C13.6055 9.25 13.5988 9.25 13.5922 9.25C13.5855 9.25 13.5789 9.25 13.5722 9.25C13.5656 9.25 13.5589 9.25 13.5523 9.25C13.5457 9.25 13.539 9.25 13.5324 9.25C13.5258 9.25 13.5191 9.25 13.5125 9.25C13.5059 9.25 13.4993 9.25 13.4926 9.25C13.486 9.25 13.4794 9.25 13.4728 9.25C13.4662 9.25 13.4596 9.25 13.453 9.25C13.4464 9.25 13.4398 9.25 13.4332 9.25C13.4266 9.25 13.42 9.25 13.4134 9.25C13.4068 9.25 13.4002 9.25 13.3936 9.25C13.387 9.25 13.3804 9.25 13.3739 9.25C13.3673 9.25 13.3607 9.25 13.3541 9.25C13.3476 9.25 13.341 9.25 13.3344 9.25C13.3279 9.25 13.3213 9.25 13.3147 9.25C13.3082 9.25 13.3016 9.25 13.2951 9.25C13.2885 9.25 13.282 9.25 13.2754 9.25C13.2689 9.25 13.2623 9.25 13.2558 9.25C13.2493 9.25 13.2427 9.25 13.2362 9.25C13.2297 9.25 13.2231 9.25 13.2166 9.25C13.2101 9.25 13.2036 9.25 13.197 9.25C13.1905 9.25 13.184 9.25 13.1775 9.25C13.171 9.25 13.1645 9.25 13.158 9.25C13.1515 9.25 13.145 9.25 13.1385 9.25C13.132 9.25 13.1255 9.25 13.119 9.25C13.1125 9.25 13.106 9.25 13.0995 9.25C13.0931 9.25 13.0866 9.25 13.0801 9.25C13.0736 9.25 13.0672 9.25 13.0607 9.25C13.0542 9.25 13.0478 9.25 13.0413 9.25C13.0348 9.25 13.0284 9.25 13.0219 9.25C13.0155 9.25 13.009 9.25 13.0026 9.25C12.9961 9.25 12.9897 9.25 12.9832 9.25C12.9768 9.25 12.9704 9.25 12.9639 9.25C12.9575 9.25 12.9511 9.25 12.9447 9.25C12.9382 9.25 12.9318 9.25 12.9254 9.25C12.919 9.25 12.9126 9.25 12.9062 9.25C12.8997 9.25 12.8933 9.25 12.8869 9.25C12.8805 9.25 12.8741 9.25 12.8677 9.25C12.8613 9.25 12.855 9.25 12.8486 9.25C12.8422 9.25 12.8358 9.25 12.8294 9.25C12.823 9.25 12.8167 9.25 12.8103 9.25C12.8039 9.25 12.7975 9.25 12.7912 9.25C12.7848 9.25 12.7784 9.25 12.7721 9.25C12.7657 9.25 12.7594 9.25 12.753 9.25C12.7467 9.25 12.7403 9.25 12.734 9.25C12.7276 9.25 12.7213 9.25 12.715 9.25C12.7086 9.25 12.7023 9.25 12.696 9.25C12.6897 9.25 12.6833 9.25 12.677 9.25C12.6707 9.25 12.6644 9.25 12.6581 9.25C12.6518 9.25 12.6454 9.25 12.6391 9.25C12.6328 9.25 12.6265 9.25 12.6202 9.25C12.6139 9.25 12.6077 9.25 12.6014 9.25C12.5951 9.25 12.5888 9.25 12.5825 9.25C12.5762 9.25 12.57 9.25 12.5637 9.25C12.5574 9.25 12.5511 9.25 12.5449 9.25C12.5386 9.25 12.5324 9.25 12.5261 9.25C12.5198 9.25 12.5136 9.25 12.5073 9.25C12.5011 9.25 12.4948 9.25 12.4886 9.25C12.4824 9.25 12.4761 9.25 12.4699 9.25C12.4637 9.25 12.4574 9.25 12.4512 9.25C12.445 9.25 12.4388 9.25 12.4325 9.25C12.4263 9.25 12.4201 9.25 12.4139 9.25C12.4077 9.25 12.4015 9.25 12.3953 9.25C12.3891 9.25 12.3829 9.25 12.3767 9.25C12.3705 9.25 12.3643 9.25 12.3581 9.25C12.352 9.25 12.3458 9.25 12.3396 9.25C12.3334 9.25 12.3273 9.25 12.3211 9.25C12.3149 9.25 12.3088 9.25 12.3026 9.25C12.2964 9.25 12.2903 9.25 12.2841 9.25C12.278 9.25 12.2718 9.25 12.2657 9.25C12.2595 9.25 12.2534 9.25 12.2473 9.25C12.2411 9.25 12.235 9.25 12.2289 9.25C12.2228 9.25 12.2166 9.25 12.2105 9.25C12.2044 9.25 12.1983 9.25 12.1922 9.25C12.1861 9.25 12.18 9.25 12.1739 9.25C12.1678 9.25 12.1617 9.25 12.1556 9.25C12.1495 9.25 12.1434 9.25 12.1373 9.25C12.1312 9.25 12.1251 9.25 12.1191 9.25C12.113 9.25 12.1069 9.25 12.1009 9.25C12.0948 9.25 12.0887 9.25 12.0827 9.25C12.0766 9.25 12.0706 9.25 12.0645 9.25C12.0585 9.25 12.0524 9.25 12.0464 9.25C12.0403 9.25 12.0343 9.25 12.0283 9.25C12.0222 9.25 12.0162 9.25 12.0102 9.25C12.0042 9.25 11.9981 9.25 11.9921 9.25C11.9861 9.25 11.9801 9.25 11.9741 9.25C11.9681 9.25 11.9621 9.25 11.9561 9.25C11.9501 9.25 11.9441 9.25 11.9381 9.25C11.9321 9.25 11.9261 9.25 11.9202 9.25C11.9142 9.25 11.9082 9.25 11.9022 9.25C11.8963 9.25 11.8903 9.25 11.8843 9.25C11.8784 9.25 11.8724 9.25 11.8665 9.25C11.8605 9.25 11.8546 9.25 11.8486 9.25C11.8427 9.25 11.8367 9.25 11.8308 9.25C11.8249 9.25 11.8189 9.25 11.813 9.25C11.8071 9.25 11.8012 9.25 11.7953 9.25C11.7893 9.25 11.7834 9.25 11.7775 9.25C11.7716 9.25 11.7657 9.25 11.7598 9.25C11.7539 9.25 11.748 9.25 11.7421 9.25C11.7362 9.25 11.7304 9.25 11.7245 9.25C11.7186 9.25 11.7127 9.25 11.7069 9.25C11.701 9.25 11.6951 9.25 11.6893 9.25C11.6834 9.25 11.6775 9.25 11.6717 9.25C11.6658 9.25 11.66 9.25 11.6541 9.25C11.6483 9.25 11.6425 9.25 11.6366 9.25C11.6308 9.25 11.625 9.25 11.6191 9.25C11.6133 9.25 11.6075 9.25 11.6017 9.25C11.5959 9.25 11.5901 9.25 11.5842 9.25C11.5784 9.25 11.5726 9.25 11.5668 9.25C11.5611 9.25 11.5553 9.25 11.5495 9.25C11.5437 9.25 11.5379 9.25 11.5321 9.25C11.5264 9.25 11.5206 9.25 11.5148 9.25C11.509 9.25 11.5033 9.25 11.4975 9.25C11.4918 9.25 11.486 9.25 11.4803 9.25C11.4745 9.25 11.4688 9.25 11.463 9.25C11.4573 9.25 11.4516 9.25 11.4458 9.25C11.4401 9.25 11.4344 9.25 11.4287 9.25C11.4229 9.25 11.4172 9.25 11.4115 9.25C11.4058 9.25 11.4001 9.25 11.3944 9.25C11.3887 9.25 11.383 9.25 11.3773 9.25C11.3716 9.25 11.3659 9.25 11.3602 9.25C11.3546 9.25 11.3489 9.25 11.3432 9.25C11.3375 9.25 11.3319 9.25 11.3262 9.25C11.3206 9.25 11.3149 9.25 11.3093 9.25C11.3036 9.25 11.298 9.25 11.2923 9.25C11.2867 9.25 11.281 9.25 11.2754 9.25C11.2698 9.25 11.2641 9.25 11.2585 9.25C11.2529 9.25 11.2473 9.25 11.2417 9.25C11.2361 9.25 11.2305 9.25 11.2248 9.25V10Z" fill="white"/>
<path d="M4.00001 22L11.5 26.3301V17.6699L4.00001 22ZM27.3998 14.8L26.6524 14.8623C26.7437 15.9584 26.5727 17.5942 25.8051 18.9253C25.0685 20.2027 23.7608 21.25 21.3998 21.25V22V22.75C24.3188 22.75 26.1111 21.3973 27.1045 19.6747C28.0669 18.0058 28.2559 16.0416 28.1472 14.7377L27.3998 14.8ZM21.3998 22V21.25C21.3942 21.25 21.3886 21.25 21.383 21.25C21.3774 21.25 21.3717 21.25 21.3661 21.25C21.3605 21.25 21.3549 21.25 21.3492 21.25C21.3436 21.25 21.338 21.25 21.3323 21.25C21.3267 21.25 21.321 21.25 21.3154 21.25C21.3097 21.25 21.3041 21.25 21.2984 21.25C21.2928 21.25 21.2871 21.25 21.2814 21.25C21.2757 21.25 21.2701 21.25 21.2644 21.25C21.2587 21.25 21.253 21.25 21.2473 21.25C21.2416 21.25 21.2359 21.25 21.2302 21.25C21.2245 21.25 21.2188 21.25 21.2131 21.25C21.2074 21.25 21.2017 21.25 21.196 21.25C21.1903 21.25 21.1845 21.25 21.1788 21.25C21.1731 21.25 21.1673 21.25 21.1616 21.25C21.1559 21.25 21.1501 21.25 21.1444 21.25C21.1386 21.25 21.1329 21.25 21.1271 21.25C21.1214 21.25 21.1156 21.25 21.1098 21.25C21.1041 21.25 21.0983 21.25 21.0925 21.25C21.0867 21.25 21.0809 21.25 21.0752 21.25C21.0694 21.25 21.0636 21.25 21.0578 21.25C21.052 21.25 21.0462 21.25 21.0404 21.25C21.0346 21.25 21.0288 21.25 21.023 21.25C21.0171 21.25 21.0113 21.25 21.0055 21.25C20.9997 21.25 20.9938 21.25 20.988 21.25C20.9822 21.25 20.9763 21.25 20.9705 21.25C20.9646 21.25 20.9588 21.25 20.9529 21.25C20.9471 21.25 20.9412 21.25 20.9354 21.25C20.9295 21.25 20.9237 21.25 20.9178 21.25C20.9119 21.25 20.906 21.25 20.9002 21.25C20.8943 21.25 20.8884 21.25 20.8825 21.25C20.8766 21.25 20.8707 21.25 20.8648 21.25C20.8589 21.25 20.853 21.25 20.8471 21.25C20.8412 21.25 20.8353 21.25 20.8294 21.25C20.8235 21.25 20.8175 21.25 20.8116 21.25C20.8057 21.25 20.7998 21.25 20.7938 21.25C20.7879 21.25 20.7819 21.25 20.776 21.25C20.7701 21.25 20.7641 21.25 20.7582 21.25C20.7522 21.25 20.7463 21.25 20.7403 21.25C20.7343 21.25 20.7284 21.25 20.7224 21.25C20.7164 21.25 20.7104 21.25 20.7045 21.25C20.6985 21.25 20.6925 21.25 20.6865 21.25C20.6805 21.25 20.6745 21.25 20.6685 21.25C20.6625 21.25 20.6565 21.25 20.6505 21.25C20.6445 21.25 20.6385 21.25 20.6325 21.25C20.6265 21.25 20.6205 21.25 20.6144 21.25C20.6084 21.25 20.6024 21.25 20.5964 21.25C20.5903 21.25 20.5843 21.25 20.5783 21.25C20.5722 21.25 20.5662 21.25 20.5601 21.25C20.5541 21.25 20.548 21.25 20.542 21.25C20.5359 21.25 20.5298 21.25 20.5238 21.25C20.5177 21.25 20.5116 21.25 20.5056 21.25C20.4995 21.25 20.4934 21.25 20.4873 21.25C20.4812 21.25 20.4752 21.25 20.4691 21.25C20.463 21.25 20.4569 21.25 20.4508 21.25C20.4447 21.25 20.4386 21.25 20.4325 21.25C20.4263 21.25 20.4202 21.25 20.4141 21.25C20.408 21.25 20.4019 21.25 20.3958 21.25C20.3896 21.25 20.3835 21.25 20.3774 21.25C20.3712 21.25 20.3651 21.25 20.3589 21.25C20.3528 21.25 20.3467 21.25 20.3405 21.25C20.3344 21.25 20.3282 21.25 20.322 21.25C20.3159 21.25 20.3097 21.25 20.3035 21.25C20.2974 21.25 20.2912 21.25 20.285 21.25C20.2789 21.25 20.2727 21.25 20.2665 21.25C20.2603 21.25 20.2541 21.25 20.2479 21.25C20.2417 21.25 20.2355 21.25 20.2293 21.25C20.2231 21.25 20.2169 21.25 20.2107 21.25C20.2045 21.25 20.1983 21.25 20.1921 21.25C20.1859 21.25 20.1797 21.25 20.1734 21.25C20.1672 21.25 20.161 21.25 20.1547 21.25C20.1485 21.25 20.1423 21.25 20.136 21.25C20.1298 21.25 20.1235 21.25 20.1173 21.25C20.111 21.25 20.1048 21.25 20.0985 21.25C20.0923 21.25 20.086 21.25 20.0798 21.25C20.0735 21.25 20.0672 21.25 20.0609 21.25C20.0547 21.25 20.0484 21.25 20.0421 21.25C20.0358 21.25 20.0296 21.25 20.0233 21.25C20.017 21.25 20.0107 21.25 20.0044 21.25C19.9981 21.25 19.9918 21.25 19.9855 21.25C19.9792 21.25 19.9729 21.25 19.9666 21.25C19.9603 21.25 19.9539 21.25 19.9476 21.25C19.9413 21.25 19.935 21.25 19.9287 21.25C19.9223 21.25 19.916 21.25 19.9097 21.25C19.9033 21.25 19.897 21.25 19.8906 21.25C19.8843 21.25 19.878 21.25 19.8716 21.25C19.8653 21.25 19.8589 21.25 19.8525 21.25C19.8462 21.25 19.8398 21.25 19.8335 21.25C19.8271 21.25 19.8207 21.25 19.8144 21.25C19.808 21.25 19.8016 21.25 19.7952 21.25C19.7888 21.25 19.7825 21.25 19.7761 21.25C19.7697 21.25 19.7633 21.25 19.7569 21.25C19.7505 21.25 19.7441 21.25 19.7377 21.25C19.7313 21.25 19.7249 21.25 19.7185 21.25C19.7121 21.25 19.7057 21.25 19.6992 21.25C19.6928 21.25 19.6864 21.25 19.68 21.25C19.6736 21.25 19.6671 21.25 19.6607 21.25C19.6543 21.25 19.6478 21.25 19.6414 21.25C19.6349 21.25 19.6285 21.25 19.6221 21.25C19.6156 21.25 19.6092 21.25 19.6027 21.25C19.5963 21.25 19.5898 21.25 19.5833 21.25C19.5769 21.25 19.5704 21.25 19.5639 21.25C19.5575 21.25 19.551 21.25 19.5445 21.25C19.538 21.25 19.5316 21.25 19.5251 21.25C19.5186 21.25 19.5121 21.25 19.5056 21.25C19.4991 21.25 19.4926 21.25 19.4862 21.25C19.4797 21.25 19.4732 21.25 19.4667 21.25C19.4601 21.25 19.4536 21.25 19.4471 21.25C19.4406 21.25 19.4341 21.25 19.4276 21.25C19.4211 21.25 19.4145 21.25 19.408 21.25C19.4015 21.25 19.395 21.25 19.3884 21.25C19.3819 21.25 19.3754 21.25 19.3688 21.25C19.3623 21.25 19.3558 21.25 19.3492 21.25C19.3427 21.25 19.3361 21.25 19.3296 21.25C19.323 21.25 19.3165 21.25 19.3099 21.25C19.3033 21.25 19.2968 21.25 19.2902 21.25C19.2836 21.25 19.2771 21.25 19.2705 21.25C19.2639 21.25 19.2574 21.25 19.2508 21.25C19.2442 21.25 19.2376 21.25 19.231 21.25C19.2244 21.25 19.2179 21.25 19.2113 21.25C19.2047 21.25 19.1981 21.25 19.1915 21.25C19.1849 21.25 19.1783 21.25 19.1717 21.25C19.1651 21.25 19.1585 21.25 19.1518 21.25C19.1452 21.25 19.1386 21.25 19.132 21.25C19.1254 21.25 19.1188 21.25 19.1121 21.25C19.1055 21.25 19.0989 21.25 19.0922 21.25C19.0856 21.25 19.079 21.25 19.0723 21.25C19.0657 21.25 19.0591 21.25 19.0524 21.25C19.0458 21.25 19.0391 21.25 19.0325 21.25C19.0258 21.25 19.0192 21.25 19.0125 21.25C19.0058 21.25 18.9992 21.25 18.9925 21.25C18.9859 21.25 18.9792 21.25 18.9725 21.25C18.9659 21.25 18.9592 21.25 18.9525 21.25C18.9458 21.25 18.9391 21.25 18.9325 21.25C18.9258 21.25 18.9191 21.25 18.9124 21.25C18.9057 21.25 18.899 21.25 18.8923 21.25C18.8856 21.25 18.8789 21.25 18.8722 21.25C18.8655 21.25 18.8588 21.25 18.8521 21.25C18.8454 21.25 18.8387 21.25 18.832 21.25C18.8253 21.25 18.8186 21.25 18.8118 21.25C18.8051 21.25 18.7984 21.25 18.7917 21.25C18.7849 21.25 18.7782 21.25 18.7715 21.25C18.7647 21.25 18.758 21.25 18.7513 21.25C18.7445 21.25 18.7378 21.25 18.7311 21.25C18.7243 21.25 18.7176 21.25 18.7108 21.25C18.7041 21.25 18.6973 21.25 18.6906 21.25C18.6838 21.25 18.677 21.25 18.6703 21.25C18.6635 21.25 18.6567 21.25 18.65 21.25C18.6432 21.25 18.6364 21.25 18.6297 21.25C18.6229 21.25 18.6161 21.25 18.6093 21.25C18.6026 21.25 18.5958 21.25 18.589 21.25C18.5822 21.25 18.5754 21.25 18.5686 21.25C18.5618 21.25 18.555 21.25 18.5482 21.25C18.5415 21.25 18.5347 21.25 18.5278 21.25C18.521 21.25 18.5142 21.25 18.5074 21.25C18.5006 21.25 18.4938 21.25 18.487 21.25C18.4802 21.25 18.4734 21.25 18.4665 21.25C18.4597 21.25 18.4529 21.25 18.4461 21.25C18.4393 21.25 18.4324 21.25 18.4256 21.25C18.4188 21.25 18.4119 21.25 18.4051 21.25C18.3983 21.25 18.3914 21.25 18.3846 21.25C18.3777 21.25 18.3709 21.25 18.3641 21.25C18.3572 21.25 18.3504 21.25 18.3435 21.25C18.3366 21.25 18.3298 21.25 18.3229 21.25C18.3161 21.25 18.3092 21.25 18.3024 21.25C18.2955 21.25 18.2886 21.25 18.2818 21.25C18.2749 21.25 18.268 21.25 18.2611 21.25C18.2543 21.25 18.2474 21.25 18.2405 21.25C18.2336 21.25 18.2267 21.25 18.2199 21.25C18.213 21.25 18.2061 21.25 18.1992 21.25C18.1923 21.25 18.1854 21.25 18.1785 21.25C18.1716 21.25 18.1647 21.25 18.1578 21.25C18.1509 21.25 18.144 21.25 18.1371 21.25C18.1302 21.25 18.1233 21.25 18.1164 21.25C18.1095 21.25 18.1026 21.25 18.0957 21.25C18.0887 21.25 18.0818 21.25 18.0749 21.25C18.068 21.25 18.0611 21.25 18.0541 21.25C18.0472 21.25 18.0403 21.25 18.0333 21.25C18.0264 21.25 18.0195 21.25 18.0125 21.25C18.0056 21.25 17.9987 21.25 17.9917 21.25C17.9848 21.25 17.9778 21.25 17.9709 21.25C17.964 21.25 17.957 21.25 17.9501 21.25C17.9431 21.25 17.9361 21.25 17.9292 21.25C17.9222 21.25 17.9153 21.25 17.9083 21.25C17.9014 21.25 17.8944 21.25 17.8874 21.25C17.8805 21.25 17.8735 21.25 17.8665 21.25C17.8596 21.25 17.8526 21.25 17.8456 21.25C17.8386 21.25 17.8317 21.25 17.8247 21.25C17.8177 21.25 17.8107 21.25 17.8037 21.25C17.7967 21.25 17.7898 21.25 17.7828 21.25C17.7758 21.25 17.7688 21.25 17.7618 21.25C17.7548 21.25 17.7478 21.25 17.7408 21.25C17.7338 21.25 17.7268 21.25 17.7198 21.25C17.7128 21.25 17.7058 21.25 17.6988 21.25C17.6918 21.25 17.6848 21.25 17.6778 21.25C17.6707 21.25 17.6637 21.25 17.6567 21.25C17.6497 21.25 17.6427 21.25 17.6357 21.25C17.6286 21.25 17.6216 21.25 17.6146 21.25C17.6076 21.25 17.6005 21.25 17.5935 21.25C17.5865 21.25 17.5794 21.25 17.5724 21.25C17.5654 21.25 17.5583 21.25 17.5513 21.25C17.5442 21.25 17.5372 21.25 17.5302 21.25C17.5231 21.25 17.5161 21.25 17.509 21.25C17.502 21.25 17.4949 21.25 17.4879 21.25C17.4808 21.25 17.4738 21.25 17.4667 21.25C17.4597 21.25 17.4526 21.25 17.4455 21.25C17.4385 21.25 17.4314 21.25 17.4243 21.25C17.4173 21.25 17.4102 21.25 17.4031 21.25C17.3961 21.25 17.389 21.25 17.3819 21.25C17.3749 21.25 17.3678 21.25 17.3607 21.25C17.3536 21.25 17.3465 21.25 17.3395 21.25C17.3324 21.25 17.3253 21.25 17.3182 21.25C17.3111 21.25 17.304 21.25 17.297 21.25C17.2899 21.25 17.2828 21.25 17.2757 21.25C17.2686 21.25 17.2615 21.25 17.2544 21.25C17.2473 21.25 17.2402 21.25 17.2331 21.25C17.226 21.25 17.2189 21.25 17.2118 21.25C17.2047 21.25 17.1976 21.25 17.1905 21.25C17.1834 21.25 17.1762 21.25 17.1691 21.25C17.162 21.25 17.1549 21.25 17.1478 21.25C17.1407 21.25 17.1335 21.25 17.1264 21.25C17.1193 21.25 17.1122 21.25 17.1051 21.25C17.0979 21.25 17.0908 21.25 17.0837 21.25C17.0765 21.25 17.0694 21.25 17.0623 21.25C17.0551 21.25 17.048 21.25 17.0409 21.25C17.0337 21.25 17.0266 21.25 17.0195 21.25C17.0123 21.25 17.0052 21.25 16.998 21.25C16.9909 21.25 16.9837 21.25 16.9766 21.25C16.9695 21.25 16.9623 21.25 16.9552 21.25C16.948 21.25 16.9409 21.25 16.9337 21.25C16.9265 21.25 16.9194 21.25 16.9122 21.25C16.9051 21.25 16.8979 21.25 16.8908 21.25C16.8836 21.25 16.8764 21.25 16.8693 21.25C16.8621 21.25 16.8549 21.25 16.8478 21.25C16.8406 21.25 16.8334 21.25 16.8263 21.25C16.8191 21.25 16.8119 21.25 16.8047 21.25C16.7976 21.25 16.7904 21.25 16.7832 21.25C16.776 21.25 16.7688 21.25 16.7617 21.25C16.7545 21.25 16.7473 21.25 16.7401 21.25C16.7329 21.25 16.7257 21.25 16.7185 21.25C16.7114 21.25 16.7042 21.25 16.697 21.25C16.6898 21.25 16.6826 21.25 16.6754 21.25C16.6682 21.25 16.661 21.25 16.6538 21.25C16.6466 21.25 16.6394 21.25 16.6322 21.25C16.625 21.25 16.6178 21.25 16.6106 21.25C16.6034 21.25 16.5962 21.25 16.589 21.25C16.5818 21.25 16.5746 21.25 16.5674 21.25C16.5601 21.25 16.5529 21.25 16.5457 21.25C16.5385 21.25 16.5313 21.25 16.5241 21.25C16.5169 21.25 16.5096 21.25 16.5024 21.25C16.4952 21.25 16.488 21.25 16.4807 21.25C16.4735 21.25 16.4663 21.25 16.4591 21.25C16.4518 21.25 16.4446 21.25 16.4374 21.25C16.4302 21.25 16.4229 21.25 16.4157 21.25C16.4085 21.25 16.4012 21.25 16.394 21.25C16.3868 21.25 16.3795 21.25 16.3723 21.25C16.3651 21.25 16.3578 21.25 16.3506 21.25C16.3433 21.25 16.3361 21.25 16.3289 21.25C16.3216 21.25 16.3144 21.25 16.3071 21.25C16.2999 21.25 16.2926 21.25 16.2854 21.25C16.2781 21.25 16.2709 21.25 16.2636 21.25C16.2564 21.25 16.2491 21.25 16.2419 21.25C16.2346 21.25 16.2274 21.25 16.2201 21.25C16.2128 21.25 16.2056 21.25 16.1983 21.25C16.1911 21.25 16.1838 21.25 16.1765 21.25C16.1693 21.25 16.162 21.25 16.1548 21.25C16.1475 21.25 16.1402 21.25 16.133 21.25C16.1257 21.25 16.1184 21.25 16.1112 21.25C16.1039 21.25 16.0966 21.25 16.0893 21.25C16.0821 21.25 16.0748 21.25 16.0675 21.25C16.0603 21.25 16.053 21.25 16.0457 21.25C16.0384 21.25 16.0311 21.25 16.0239 21.25C16.0166 21.25 16.0093 21.25 16.002 21.25C15.9947 21.25 15.9875 21.25 15.9802 21.25C15.9729 21.25 15.9656 21.25 15.9583 21.25C15.951 21.25 15.9437 21.25 15.9365 21.25C15.9292 21.25 15.9219 21.25 15.9146 21.25C15.9073 21.25 15.9 21.25 15.8927 21.25C15.8854 21.25 15.8781 21.25 15.8708 21.25C15.8635 21.25 15.8562 21.25 15.8489 21.25C15.8416 21.25 15.8343 21.25 15.827 21.25C15.8197 21.25 15.8124 21.25 15.8051 21.25C15.7978 21.25 15.7905 21.25 15.7832 21.25C15.7759 21.25 15.7686 21.25 15.7613 21.25C15.754 21.25 15.7467 21.25 15.7394 21.25C15.7321 21.25 15.7248 21.25 15.7175 21.25C15.7102 21.25 15.7029 21.25 15.6955 21.25C15.6882 21.25 15.6809 21.25 15.6736 21.25C15.6663 21.25 15.659 21.25 15.6517 21.25C15.6443 21.25 15.637 21.25 15.6297 21.25C15.6224 21.25 15.6151 21.25 15.6078 21.25C15.6004 21.25 15.5931 21.25 15.5858 21.25C15.5785 21.25 15.5712 21.25 15.5638 21.25C15.5565 21.25 15.5492 21.25 15.5419 21.25C15.5345 21.25 15.5272 21.25 15.5199 21.25C15.5126 21.25 15.5052 21.25 15.4979 21.25C15.4906 21.25 15.4832 21.25 15.4759 21.25C15.4686 21.25 15.4613 21.25 15.4539 21.25C15.4466 21.25 15.4393 21.25 15.4319 21.25C15.4246 21.25 15.4173 21.25 15.4099 21.25C15.4026 21.25 15.3952 21.25 15.3879 21.25C15.3806 21.25 15.3732 21.25 15.3659 21.25C15.3586 21.25 15.3512 21.25 15.3439 21.25C15.3365 21.25 15.3292 21.25 15.3219 21.25C15.3145 21.25 15.3072 21.25 15.2998 21.25C15.2925 21.25 15.2852 21.25 15.2778 21.25C15.2705 21.25 15.2631 21.25 15.2558 21.25C15.2484 21.25 15.2411 21.25 15.2337 21.25C15.2264 21.25 15.219 21.25 15.2117 21.25C15.2043 21.25 15.197 21.25 15.1896 21.25C15.1823 21.25 15.1749 21.25 15.1676 21.25C15.1602 21.25 15.1529 21.25 15.1455 21.25C15.1382 21.25 15.1308 21.25 15.1235 21.25C15.1161 21.25 15.1088 21.25 15.1014 21.25C15.0941 21.25 15.0867 21.25 15.0794 21.25C15.072 21.25 15.0646 21.25 15.0573 21.25C15.0499 21.25 15.0426 21.25 15.0352 21.25C15.0279 21.25 15.0205 21.25 15.0131 21.25C15.0058 21.25 14.9984 21.25 14.9911 21.25C14.9837 21.25 14.9763 21.25 14.969 21.25C14.9616 21.25 14.9543 21.25 14.9469 21.25C14.9395 21.25 14.9322 21.25 14.9248 21.25C14.9174 21.25 14.9101 21.25 14.9027 21.25C14.8953 21.25 14.888 21.25 14.8806 21.25C14.8733 21.25 14.8659 21.25 14.8585 21.25C14.8512 21.25 14.8438 21.25 14.8364 21.25C14.8291 21.25 14.8217 21.25 14.8143 21.25C14.807 21.25 14.7996 21.25 14.7922 21.25C14.7848 21.25 14.7775 21.25 14.7701 21.25C14.7627 21.25 14.7554 21.25 14.748 21.25C14.7406 21.25 14.7333 21.25 14.7259 21.25C14.7185 21.25 14.7111 21.25 14.7038 21.25C14.6964 21.25 14.689 21.25 14.6817 21.25C14.6743 21.25 14.6669 21.25 14.6595 21.25C14.6522 21.25 14.6448 21.25 14.6374 21.25C14.63 21.25 14.6227 21.25 14.6153 21.25C14.6079 21.25 14.6005 21.25 14.5932 21.25C14.5858 21.25 14.5784 21.25 14.571 21.25C14.5637 21.25 14.5563 21.25 14.5489 21.25C14.5415 21.25 14.5342 21.25 14.5268 21.25C14.5194 21.25 14.512 21.25 14.5047 21.25C14.4973 21.25 14.4899 21.25 14.4825 21.25C14.4752 21.25 14.4678 21.25 14.4604 21.25C14.453 21.25 14.4456 21.25 14.4383 21.25C14.4309 21.25 14.4235 21.25 14.4161 21.25C14.4088 21.25 14.4014 21.25 14.394 21.25C14.3866 21.25 14.3792 21.25 14.3719 21.25C14.3645 21.25 14.3571 21.25 14.3497 21.25C14.3423 21.25 14.335 21.25 14.3276 21.25C14.3202 21.25 14.3128 21.25 14.3054 21.25C14.2981 21.25 14.2907 21.25 14.2833 21.25C14.2759 21.25 14.2685 21.25 14.2612 21.25C14.2538 21.25 14.2464 21.25 14.239 21.25C14.2316 21.25 14.2243 21.25 14.2169 21.25C14.2095 21.25 14.2021 21.25 14.1947 21.25C14.1874 21.25 14.18 21.25 14.1726 21.25C14.1652 21.25 14.1578 21.25 14.1505 21.25C14.1431 21.25 14.1357 21.25 14.1283 21.25C14.1209 21.25 14.1136 21.25 14.1062 21.25C14.0988 21.25 14.0914 21.25 14.084 21.25C14.0767 21.25 14.0693 21.25 14.0619 21.25C14.0545 21.25 14.0471 21.25 14.0398 21.25C14.0324 21.25 14.025 21.25 14.0176 21.25C14.0102 21.25 14.0029 21.25 13.9955 21.25C13.9881 21.25 13.9807 21.25 13.9733 21.25C13.966 21.25 13.9586 21.25 13.9512 21.25C13.9438 21.25 13.9364 21.25 13.9291 21.25C13.9217 21.25 13.9143 21.25 13.9069 21.25C13.8996 21.25 13.8922 21.25 13.8848 21.25C13.8774 21.25 13.87 21.25 13.8627 21.25C13.8553 21.25 13.8479 21.25 13.8405 21.25C13.8332 21.25 13.8258 21.25 13.8184 21.25C13.811 21.25 13.8036 21.25 13.7963 21.25C13.7889 21.25 13.7815 21.25 13.7741 21.25C13.7668 21.25 13.7594 21.25 13.752 21.25C13.7446 21.25 13.7373 21.25 13.7299 21.25C13.7225 21.25 13.7151 21.25 13.7078 21.25C13.7004 21.25 13.693 21.25 13.6856 21.25C13.6783 21.25 13.6709 21.25 13.6635 21.25C13.6561 21.25 13.6488 21.25 13.6414 21.25C13.634 21.25 13.6267 21.25 13.6193 21.25C13.6119 21.25 13.6045 21.25 13.5972 21.25C13.5898 21.25 13.5824 21.25 13.5751 21.25C13.5677 21.25 13.5603 21.25 13.5529 21.25C13.5456 21.25 13.5382 21.25 13.5308 21.25C13.5235 21.25 13.5161 21.25 13.5087 21.25C13.5014 21.25 13.494 21.25 13.4866 21.25C13.4793 21.25 13.4719 21.25 13.4645 21.25C13.4572 21.25 13.4498 21.25 13.4424 21.25C13.4351 21.25 13.4277 21.25 13.4203 21.25C13.413 21.25 13.4056 21.25 13.3982 21.25C13.3909 21.25 13.3835 21.25 13.3761 21.25C13.3688 21.25 13.3614 21.25 13.3541 21.25C13.3467 21.25 13.3393 21.25 13.332 21.25C13.3246 21.25 13.3172 21.25 13.3099 21.25C13.3025 21.25 13.2952 21.25 13.2878 21.25C13.2805 21.25 13.2731 21.25 13.2657 21.25C13.2584 21.25 13.251 21.25 13.2437 21.25C13.2363 21.25 13.229 21.25 13.2216 21.25C13.2142 21.25 13.2069 21.25 13.1995 21.25C13.1922 21.25 13.1848 21.25 13.1775 21.25C13.1701 21.25 13.1628 21.25 13.1554 21.25C13.1481 21.25 13.1407 21.25 13.1334 21.25C13.126 21.25 13.1187 21.25 13.1113 21.25C13.104 21.25 13.0966 21.25 13.0893 21.25C13.0819 21.25 13.0746 21.25 13.0672 21.25C13.0599 21.25 13.0525 21.25 13.0452 21.25C13.0378 21.25 13.0305 21.25 13.0232 21.25C13.0158 21.25 13.0085 21.25 13.0011 21.25C12.9938 21.25 12.9864 21.25 12.9791 21.25C12.9718 21.25 12.9644 21.25 12.9571 21.25C12.9497 21.25 12.9424 21.25 12.9351 21.25C12.9277 21.25 12.9204 21.25 12.9131 21.25C12.9057 21.25 12.8984 21.25 12.8911 21.25C12.8837 21.25 12.8764 21.25 12.8691 21.25C12.8617 21.25 12.8544 21.25 12.8471 21.25C12.8397 21.25 12.8324 21.25 12.8251 21.25C12.8177 21.25 12.8104 21.25 12.8031 21.25C12.7958 21.25 12.7884 21.25 12.7811 21.25C12.7738 21.25 12.7664 21.25 12.7591 21.25C12.7518 21.25 12.7445 21.25 12.7372 21.25C12.7298 21.25 12.7225 21.25 12.7152 21.25C12.7079 21.25 12.7005 21.25 12.6932 21.25C12.6859 21.25 12.6786 21.25 12.6713 21.25C12.664 21.25 12.6566 21.25 12.6493 21.25C12.642 21.25 12.6347 21.25 12.6274 21.25C12.6201 21.25 12.6128 21.25 12.6054 21.25C12.5981 21.25 12.5908 21.25 12.5835 21.25C12.5762 21.25 12.5689 21.25 12.5616 21.25C12.5543 21.25 12.547 21.25 12.5397 21.25C12.5324 21.25 12.5251 21.25 12.5178 21.25C12.5105 21.25 12.5032 21.25 12.4959 21.25C12.4886 21.25 12.4813 21.25 12.474 21.25C12.4667 21.25 12.4594 21.25 12.4521 21.25C12.4448 21.25 12.4375 21.25 12.4302 21.25C12.4229 21.25 12.4156 21.25 12.4083 21.25C12.401 21.25 12.3937 21.25 12.3864 21.25C12.3791 21.25 12.3718 21.25 12.3646 21.25C12.3573 21.25 12.35 21.25 12.3427 21.25C12.3354 21.25 12.3281 21.25 12.3208 21.25C12.3136 21.25 12.3063 21.25 12.299 21.25C12.2917 21.25 12.2844 21.25 12.2772 21.25C12.2699 21.25 12.2626 21.25 12.2553 21.25C12.248 21.25 12.2408 21.25 12.2335 21.25C12.2262 21.25 12.219 21.25 12.2117 21.25C12.2044 21.25 12.1971 21.25 12.1899 21.25C12.1826 21.25 12.1753 21.25 12.1681 21.25C12.1608 21.25 12.1535 21.25 12.1463 21.25C12.139 21.25 12.1317 21.25 12.1245 21.25C12.1172 21.25 12.11 21.25 12.1027 21.25C12.0954 21.25 12.0882 21.25 12.0809 21.25C12.0737 21.25 12.0664 21.25 12.0592 21.25C12.0519 21.25 12.0447 21.25 12.0374 21.25C12.0302 21.25 12.0229 21.25 12.0157 21.25C12.0084 21.25 12.0012 21.25 11.9939 21.25C11.9867 21.25 11.9794 21.25 11.9722 21.25C11.965 21.25 11.9577 21.25 11.9505 21.25C11.9432 21.25 11.936 21.25 11.9288 21.25C11.9215 21.25 11.9143 21.25 11.9071 21.25C11.8998 21.25 11.8926 21.25 11.8854 21.25C11.8781 21.25 11.8709 21.25 11.8637 21.25C11.8564 21.25 11.8492 21.25 11.842 21.25C11.8348 21.25 11.8275 21.25 11.8203 21.25C11.8131 21.25 11.8059 21.25 11.7987 21.25C11.7914 21.25 11.7842 21.25 11.777 21.25C11.7698 21.25 11.7626 21.25 11.7554 21.25C11.7482 21.25 11.7409 21.25 11.7337 21.25C11.7265 21.25 11.7193 21.25 11.7121 21.25C11.7049 21.25 11.6977 21.25 11.6905 21.25C11.6833 21.25 11.6761 21.25 11.6689 21.25C11.6617 21.25 11.6545 21.25 11.6473 21.25C11.6401 21.25 11.6329 21.25 11.6257 21.25C11.6185 21.25 11.6113 21.25 11.6041 21.25C11.5969 21.25 11.5897 21.25 11.5826 21.25C11.5754 21.25 11.5682 21.25 11.561 21.25C11.5538 21.25 11.5466 21.25 11.5394 21.25C11.5323 21.25 11.5251 21.25 11.5179 21.25C11.5107 21.25 11.5036 21.25 11.4964 21.25C11.4892 21.25 11.482 21.25 11.4749 21.25C11.4677 21.25 11.4605 21.25 11.4534 21.25C11.4462 21.25 11.439 21.25 11.4319 21.25C11.4247 21.25 11.4175 21.25 11.4104 21.25C11.4032 21.25 11.3961 21.25 11.3889 21.25C11.3817 21.25 11.3746 21.25 11.3674 21.25C11.3603 21.25 11.3531 21.25 11.346 21.25C11.3388 21.25 11.3317 21.25 11.3245 21.25C11.3174 21.25 11.3102 21.25 11.3031 21.25C11.296 21.25 11.2888 21.25 11.2817 21.25C11.2745 21.25 11.2674 21.25 11.2603 21.25C11.2531 21.25 11.246 21.25 11.2389 21.25C11.2317 21.25 11.2246 21.25 11.2175 21.25C11.2104 21.25 11.2032 21.25 11.1961 21.25C11.189 21.25 11.1819 21.25 11.1747 21.25C11.1676 21.25 11.1605 21.25 11.1534 21.25C11.1463 21.25 11.1392 21.25 11.132 21.25C11.1249 21.25 11.1178 21.25 11.1107 21.25C11.1036 21.25 11.0965 21.25 11.0894 21.25C11.0823 21.25 11.0752 21.25 11.0681 21.25C11.061 21.25 11.0539 21.25 11.0468 21.25C11.0397 21.25 11.0326 21.25 11.0255 21.25C11.0184 21.25 11.0113 21.25 11.0042 21.25C10.9971 21.25 10.9901 21.25 10.983 21.25C10.9759 21.25 10.9688 21.25 10.9617 21.25C10.9546 21.25 10.9476 21.25 10.9405 21.25C10.9334 21.25 10.9263 21.25 10.9193 21.25C10.9122 21.25 10.9051 21.25 10.8981 21.25C10.891 21.25 10.8839 21.25 10.8769 21.25C10.8698 21.25 10.8627 21.25 10.8557 21.25C10.8486 21.25 10.8416 21.25 10.8345 21.25C10.8275 21.25 10.8204 21.25 10.8133 21.25C10.8063 21.25 10.7992 21.25 10.7922 21.25C10.7852 21.25 10.7781 21.25 10.7711 21.25C10.764 21.25 10.757 21.25 10.7499 21.25V22V22.75C10.757 22.75 10.764 22.75 10.7711 22.75C10.7781 22.75 10.7852 22.75 10.7922 22.75C10.7992 22.75 10.8063 22.75 10.8133 22.75C10.8204 22.75 10.8275 22.75 10.8345 22.75C10.8416 22.75 10.8486 22.75 10.8557 22.75C10.8627 22.75 10.8698 22.75 10.8769 22.75C10.8839 22.75 10.891 22.75 10.8981 22.75C10.9051 22.75 10.9122 22.75 10.9193 22.75C10.9263 22.75 10.9334 22.75 10.9405 22.75C10.9476 22.75 10.9546 22.75 10.9617 22.75C10.9688 22.75 10.9759 22.75 10.983 22.75C10.9901 22.75 10.9971 22.75 11.0042 22.75C11.0113 22.75 11.0184 22.75 11.0255 22.75C11.0326 22.75 11.0397 22.75 11.0468 22.75C11.0539 22.75 11.061 22.75 11.0681 22.75C11.0752 22.75 11.0823 22.75 11.0894 22.75C11.0965 22.75 11.1036 22.75 11.1107 22.75C11.1178 22.75 11.1249 22.75 11.132 22.75C11.1392 22.75 11.1463 22.75 11.1534 22.75C11.1605 22.75 11.1676 22.75 11.1747 22.75C11.1819 22.75 11.189 22.75 11.1961 22.75C11.2032 22.75 11.2104 22.75 11.2175 22.75C11.2246 22.75 11.2317 22.75 11.2389 22.75C11.246 22.75 11.2531 22.75 11.2603 22.75C11.2674 22.75 11.2745 22.75 11.2817 22.75C11.2888 22.75 11.296 22.75 11.3031 22.75C11.3102 22.75 11.3174 22.75 11.3245 22.75C11.3317 22.75 11.3388 22.75 11.346 22.75C11.3531 22.75 11.3603 22.75 11.3674 22.75C11.3746 22.75 11.3817 22.75 11.3889 22.75C11.3961 22.75 11.4032 22.75 11.4104 22.75C11.4175 22.75 11.4247 22.75 11.4319 22.75C11.439 22.75 11.4462 22.75 11.4534 22.75C11.4605 22.75 11.4677 22.75 11.4749 22.75C11.482 22.75 11.4892 22.75 11.4964 22.75C11.5036 22.75 11.5107 22.75 11.5179 22.75C11.5251 22.75 11.5323 22.75 11.5394 22.75C11.5466 22.75 11.5538 22.75 11.561 22.75C11.5682 22.75 11.5754 22.75 11.5826 22.75C11.5897 22.75 11.5969 22.75 11.6041 22.75C11.6113 22.75 11.6185 22.75 11.6257 22.75C11.6329 22.75 11.6401 22.75 11.6473 22.75C11.6545 22.75 11.6617 22.75 11.6689 22.75C11.6761 22.75 11.6833 22.75 11.6905 22.75C11.6977 22.75 11.7049 22.75 11.7121 22.75C11.7193 22.75 11.7265 22.75 11.7337 22.75C11.7409 22.75 11.7482 22.75 11.7554 22.75C11.7626 22.75 11.7698 22.75 11.777 22.75C11.7842 22.75 11.7914 22.75 11.7987 22.75C11.8059 22.75 11.8131 22.75 11.8203 22.75C11.8275 22.75 11.8348 22.75 11.842 22.75C11.8492 22.75 11.8564 22.75 11.8637 22.75C11.8709 22.75 11.8781 22.75 11.8854 22.75C11.8926 22.75 11.8998 22.75 11.9071 22.75C11.9143 22.75 11.9215 22.75 11.9288 22.75C11.936 22.75 11.9432 22.75 11.9505 22.75C11.9577 22.75 11.965 22.75 11.9722 22.75C11.9794 22.75 11.9867 22.75 11.9939 22.75C12.0012 22.75 12.0084 22.75 12.0157 22.75C12.0229 22.75 12.0302 22.75 12.0374 22.75C12.0447 22.75 12.0519 22.75 12.0592 22.75C12.0664 22.75 12.0737 22.75 12.0809 22.75C12.0882 22.75 12.0954 22.75 12.1027 22.75C12.11 22.75 12.1172 22.75 12.1245 22.75C12.1317 22.75 12.139 22.75 12.1463 22.75C12.1535 22.75 12.1608 22.75 12.1681 22.75C12.1753 22.75 12.1826 22.75 12.1899 22.75C12.1971 22.75 12.2044 22.75 12.2117 22.75C12.219 22.75 12.2262 22.75 12.2335 22.75C12.2408 22.75 12.248 22.75 12.2553 22.75C12.2626 22.75 12.2699 22.75 12.2772 22.75C12.2844 22.75 12.2917 22.75 12.299 22.75C12.3063 22.75 12.3136 22.75 12.3208 22.75C12.3281 22.75 12.3354 22.75 12.3427 22.75C12.35 22.75 12.3573 22.75 12.3646 22.75C12.3718 22.75 12.3791 22.75 12.3864 22.75C12.3937 22.75 12.401 22.75 12.4083 22.75C12.4156 22.75 12.4229 22.75 12.4302 22.75C12.4375 22.75 12.4448 22.75 12.4521 22.75C12.4594 22.75 12.4667 22.75 12.474 22.75C12.4813 22.75 12.4886 22.75 12.4959 22.75C12.5032 22.75 12.5105 22.75 12.5178 22.75C12.5251 22.75 12.5324 22.75 12.5397 22.75C12.547 22.75 12.5543 22.75 12.5616 22.75C12.5689 22.75 12.5762 22.75 12.5835 22.75C12.5908 22.75 12.5981 22.75 12.6054 22.75C12.6128 22.75 12.6201 22.75 12.6274 22.75C12.6347 22.75 12.642 22.75 12.6493 22.75C12.6566 22.75 12.664 22.75 12.6713 22.75C12.6786 22.75 12.6859 22.75 12.6932 22.75C12.7005 22.75 12.7079 22.75 12.7152 22.75C12.7225 22.75 12.7298 22.75 12.7372 22.75C12.7445 22.75 12.7518 22.75 12.7591 22.75C12.7664 22.75 12.7738 22.75 12.7811 22.75C12.7884 22.75 12.7958 22.75 12.8031 22.75C12.8104 22.75 12.8177 22.75 12.8251 22.75C12.8324 22.75 12.8397 22.75 12.8471 22.75C12.8544 22.75 12.8617 22.75 12.8691 22.75C12.8764 22.75 12.8837 22.75 12.8911 22.75C12.8984 22.75 12.9057 22.75 12.9131 22.75C12.9204 22.75 12.9277 22.75 12.9351 22.75C12.9424 22.75 12.9497 22.75 12.9571 22.75C12.9644 22.75 12.9718 22.75 12.9791 22.75C12.9864 22.75 12.9938 22.75 13.0011 22.75C13.0085 22.75 13.0158 22.75 13.0232 22.75C13.0305 22.75 13.0378 22.75 13.0452 22.75C13.0525 22.75 13.0599 22.75 13.0672 22.75C13.0746 22.75 13.0819 22.75 13.0893 22.75C13.0966 22.75 13.104 22.75 13.1113 22.75C13.1187 22.75 13.126 22.75 13.1334 22.75C13.1407 22.75 13.1481 22.75 13.1554 22.75C13.1628 22.75 13.1701 22.75 13.1775 22.75C13.1848 22.75 13.1922 22.75 13.1995 22.75C13.2069 22.75 13.2142 22.75 13.2216 22.75C13.229 22.75 13.2363 22.75 13.2437 22.75C13.251 22.75 13.2584 22.75 13.2657 22.75C13.2731 22.75 13.2805 22.75 13.2878 22.75C13.2952 22.75 13.3025 22.75 13.3099 22.75C13.3172 22.75 13.3246 22.75 13.332 22.75C13.3393 22.75 13.3467 22.75 13.3541 22.75C13.3614 22.75 13.3688 22.75 13.3761 22.75C13.3835 22.75 13.3909 22.75 13.3982 22.75C13.4056 22.75 13.413 22.75 13.4203 22.75C13.4277 22.75 13.4351 22.75 13.4424 22.75C13.4498 22.75 13.4572 22.75 13.4645 22.75C13.4719 22.75 13.4793 22.75 13.4866 22.75C13.494 22.75 13.5014 22.75 13.5087 22.75C13.5161 22.75 13.5235 22.75 13.5308 22.75C13.5382 22.75 13.5456 22.75 13.5529 22.75C13.5603 22.75 13.5677 22.75 13.5751 22.75C13.5824 22.75 13.5898 22.75 13.5972 22.75C13.6045 22.75 13.6119 22.75 13.6193 22.75C13.6267 22.75 13.634 22.75 13.6414 22.75C13.6488 22.75 13.6561 22.75 13.6635 22.75C13.6709 22.75 13.6783 22.75 13.6856 22.75C13.693 22.75 13.7004 22.75 13.7078 22.75C13.7151 22.75 13.7225 22.75 13.7299 22.75C13.7373 22.75 13.7446 22.75 13.752 22.75C13.7594 22.75 13.7668 22.75 13.7741 22.75C13.7815 22.75 13.7889 22.75 13.7963 22.75C13.8036 22.75 13.811 22.75 13.8184 22.75C13.8258 22.75 13.8332 22.75 13.8405 22.75C13.8479 22.75 13.8553 22.75 13.8627 22.75C13.87 22.75 13.8774 22.75 13.8848 22.75C13.8922 22.75 13.8996 22.75 13.9069 22.75C13.9143 22.75 13.9217 22.75 13.9291 22.75C13.9364 22.75 13.9438 22.75 13.9512 22.75C13.9586 22.75 13.966 22.75 13.9733 22.75C13.9807 22.75 13.9881 22.75 13.9955 22.75C14.0029 22.75 14.0102 22.75 14.0176 22.75C14.025 22.75 14.0324 22.75 14.0398 22.75C14.0471 22.75 14.0545 22.75 14.0619 22.75C14.0693 22.75 14.0767 22.75 14.084 22.75C14.0914 22.75 14.0988 22.75 14.1062 22.75C14.1136 22.75 14.1209 22.75 14.1283 22.75C14.1357 22.75 14.1431 22.75 14.1505 22.75C14.1578 22.75 14.1652 22.75 14.1726 22.75C14.18 22.75 14.1874 22.75 14.1947 22.75C14.2021 22.75 14.2095 22.75 14.2169 22.75C14.2243 22.75 14.2316 22.75 14.239 22.75C14.2464 22.75 14.2538 22.75 14.2612 22.75C14.2685 22.75 14.2759 22.75 14.2833 22.75C14.2907 22.75 14.2981 22.75 14.3054 22.75C14.3128 22.75 14.3202 22.75 14.3276 22.75C14.335 22.75 14.3423 22.75 14.3497 22.75C14.3571 22.75 14.3645 22.75 14.3719 22.75C14.3792 22.75 14.3866 22.75 14.394 22.75C14.4014 22.75 14.4088 22.75 14.4161 22.75C14.4235 22.75 14.4309 22.75 14.4383 22.75C14.4456 22.75 14.453 22.75 14.4604 22.75C14.4678 22.75 14.4752 22.75 14.4825 22.75C14.4899 22.75 14.4973 22.75 14.5047 22.75C14.512 22.75 14.5194 22.75 14.5268 22.75C14.5342 22.75 14.5415 22.75 14.5489 22.75C14.5563 22.75 14.5637 22.75 14.571 22.75C14.5784 22.75 14.5858 22.75 14.5932 22.75C14.6005 22.75 14.6079 22.75 14.6153 22.75C14.6227 22.75 14.63 22.75 14.6374 22.75C14.6448 22.75 14.6522 22.75 14.6595 22.75C14.6669 22.75 14.6743 22.75 14.6817 22.75C14.689 22.75 14.6964 22.75 14.7038 22.75C14.7111 22.75 14.7185 22.75 14.7259 22.75C14.7333 22.75 14.7406 22.75 14.748 22.75C14.7554 22.75 14.7627 22.75 14.7701 22.75C14.7775 22.75 14.7848 22.75 14.7922 22.75C14.7996 22.75 14.807 22.75 14.8143 22.75C14.8217 22.75 14.8291 22.75 14.8364 22.75C14.8438 22.75 14.8512 22.75 14.8585 22.75C14.8659 22.75 14.8733 22.75 14.8806 22.75C14.888 22.75 14.8953 22.75 14.9027 22.75C14.9101 22.75 14.9174 22.75 14.9248 22.75C14.9322 22.75 14.9395 22.75 14.9469 22.75C14.9543 22.75 14.9616 22.75 14.969 22.75C14.9763 22.75 14.9837 22.75 14.9911 22.75C14.9984 22.75 15.0058 22.75 15.0131 22.75C15.0205 22.75 15.0279 22.75 15.0352 22.75C15.0426 22.75 15.0499 22.75 15.0573 22.75C15.0646 22.75 15.072 22.75 15.0794 22.75C15.0867 22.75 15.0941 22.75 15.1014 22.75C15.1088 22.75 15.1161 22.75 15.1235 22.75C15.1308 22.75 15.1382 22.75 15.1455 22.75C15.1529 22.75 15.1602 22.75 15.1676 22.75C15.1749 22.75 15.1823 22.75 15.1896 22.75C15.197 22.75 15.2043 22.75 15.2117 22.75C15.219 22.75 15.2264 22.75 15.2337 22.75C15.2411 22.75 15.2484 22.75 15.2558 22.75C15.2631 22.75 15.2705 22.75 15.2778 22.75C15.2852 22.75 15.2925 22.75 15.2998 22.75C15.3072 22.75 15.3145 22.75 15.3219 22.75C15.3292 22.75 15.3365 22.75 15.3439 22.75C15.3512 22.75 15.3586 22.75 15.3659 22.75C15.3732 22.75 15.3806 22.75 15.3879 22.75C15.3952 22.75 15.4026 22.75 15.4099 22.75C15.4173 22.75 15.4246 22.75 15.4319 22.75C15.4393 22.75 15.4466 22.75 15.4539 22.75C15.4613 22.75 15.4686 22.75 15.4759 22.75C15.4832 22.75 15.4906 22.75 15.4979 22.75C15.5052 22.75 15.5126 22.75 15.5199 22.75C15.5272 22.75 15.5345 22.75 15.5419 22.75C15.5492 22.75 15.5565 22.75 15.5638 22.75C15.5712 22.75 15.5785 22.75 15.5858 22.75C15.5931 22.75 15.6004 22.75 15.6078 22.75C15.6151 22.75 15.6224 22.75 15.6297 22.75C15.637 22.75 15.6443 22.75 15.6517 22.75C15.659 22.75 15.6663 22.75 15.6736 22.75C15.6809 22.75 15.6882 22.75 15.6955 22.75C15.7029 22.75 15.7102 22.75 15.7175 22.75C15.7248 22.75 15.7321 22.75 15.7394 22.75C15.7467 22.75 15.754 22.75 15.7613 22.75C15.7686 22.75 15.7759 22.75 15.7832 22.75C15.7905 22.75 15.7978 22.75 15.8051 22.75C15.8124 22.75 15.8197 22.75 15.827 22.75C15.8343 22.75 15.8416 22.75 15.8489 22.75C15.8562 22.75 15.8635 22.75 15.8708 22.75C15.8781 22.75 15.8854 22.75 15.8927 22.75C15.9 22.75 15.9073 22.75 15.9146 22.75C15.9219 22.75 15.9292 22.75 15.9365 22.75C15.9437 22.75 15.951 22.75 15.9583 22.75C15.9656 22.75 15.9729 22.75 15.9802 22.75C15.9875 22.75 15.9947 22.75 16.002 22.75C16.0093 22.75 16.0166 22.75 16.0239 22.75C16.0311 22.75 16.0384 22.75 16.0457 22.75C16.053 22.75 16.0603 22.75 16.0675 22.75C16.0748 22.75 16.0821 22.75 16.0893 22.75C16.0966 22.75 16.1039 22.75 16.1112 22.75C16.1184 22.75 16.1257 22.75 16.133 22.75C16.1402 22.75 16.1475 22.75 16.1548 22.75C16.162 22.75 16.1693 22.75 16.1765 22.75C16.1838 22.75 16.1911 22.75 16.1983 22.75C16.2056 22.75 16.2128 22.75 16.2201 22.75C16.2274 22.75 16.2346 22.75 16.2419 22.75C16.2491 22.75 16.2564 22.75 16.2636 22.75C16.2709 22.75 16.2781 22.75 16.2854 22.75C16.2926 22.75 16.2999 22.75 16.3071 22.75C16.3144 22.75 16.3216 22.75 16.3289 22.75C16.3361 22.75 16.3433 22.75 16.3506 22.75C16.3578 22.75 16.3651 22.75 16.3723 22.75C16.3795 22.75 16.3868 22.75 16.394 22.75C16.4012 22.75 16.4085 22.75 16.4157 22.75C16.4229 22.75 16.4302 22.75 16.4374 22.75C16.4446 22.75 16.4518 22.75 16.4591 22.75C16.4663 22.75 16.4735 22.75 16.4807 22.75C16.488 22.75 16.4952 22.75 16.5024 22.75C16.5096 22.75 16.5169 22.75 16.5241 22.75C16.5313 22.75 16.5385 22.75 16.5457 22.75C16.5529 22.75 16.5601 22.75 16.5674 22.75C16.5746 22.75 16.5818 22.75 16.589 22.75C16.5962 22.75 16.6034 22.75 16.6106 22.75C16.6178 22.75 16.625 22.75 16.6322 22.75C16.6394 22.75 16.6466 22.75 16.6538 22.75C16.661 22.75 16.6682 22.75 16.6754 22.75C16.6826 22.75 16.6898 22.75 16.697 22.75C16.7042 22.75 16.7114 22.75 16.7185 22.75C16.7257 22.75 16.7329 22.75 16.7401 22.75C16.7473 22.75 16.7545 22.75 16.7617 22.75C16.7688 22.75 16.776 22.75 16.7832 22.75C16.7904 22.75 16.7976 22.75 16.8047 22.75C16.8119 22.75 16.8191 22.75 16.8263 22.75C16.8334 22.75 16.8406 22.75 16.8478 22.75C16.8549 22.75 16.8621 22.75 16.8693 22.75C16.8764 22.75 16.8836 22.75 16.8908 22.75C16.8979 22.75 16.9051 22.75 16.9122 22.75C16.9194 22.75 16.9265 22.75 16.9337 22.75C16.9409 22.75 16.948 22.75 16.9552 22.75C16.9623 22.75 16.9695 22.75 16.9766 22.75C16.9837 22.75 16.9909 22.75 16.998 22.75C17.0052 22.75 17.0123 22.75 17.0195 22.75C17.0266 22.75 17.0337 22.75 17.0409 22.75C17.048 22.75 17.0551 22.75 17.0623 22.75C17.0694 22.75 17.0765 22.75 17.0837 22.75C17.0908 22.75 17.0979 22.75 17.1051 22.75C17.1122 22.75 17.1193 22.75 17.1264 22.75C17.1335 22.75 17.1407 22.75 17.1478 22.75C17.1549 22.75 17.162 22.75 17.1691 22.75C17.1762 22.75 17.1834 22.75 17.1905 22.75C17.1976 22.75 17.2047 22.75 17.2118 22.75C17.2189 22.75 17.226 22.75 17.2331 22.75C17.2402 22.75 17.2473 22.75 17.2544 22.75C17.2615 22.75 17.2686 22.75 17.2757 22.75C17.2828 22.75 17.2899 22.75 17.297 22.75C17.304 22.75 17.3111 22.75 17.3182 22.75C17.3253 22.75 17.3324 22.75 17.3395 22.75C17.3465 22.75 17.3536 22.75 17.3607 22.75C17.3678 22.75 17.3749 22.75 17.3819 22.75C17.389 22.75 17.3961 22.75 17.4031 22.75C17.4102 22.75 17.4173 22.75 17.4243 22.75C17.4314 22.75 17.4385 22.75 17.4455 22.75C17.4526 22.75 17.4597 22.75 17.4667 22.75C17.4738 22.75 17.4808 22.75 17.4879 22.75C17.4949 22.75 17.502 22.75 17.509 22.75C17.5161 22.75 17.5231 22.75 17.5302 22.75C17.5372 22.75 17.5442 22.75 17.5513 22.75C17.5583 22.75 17.5654 22.75 17.5724 22.75C17.5794 22.75 17.5865 22.75 17.5935 22.75C17.6005 22.75 17.6076 22.75 17.6146 22.75C17.6216 22.75 17.6286 22.75 17.6357 22.75C17.6427 22.75 17.6497 22.75 17.6567 22.75C17.6637 22.75 17.6707 22.75 17.6778 22.75C17.6848 22.75 17.6918 22.75 17.6988 22.75C17.7058 22.75 17.7128 22.75 17.7198 22.75C17.7268 22.75 17.7338 22.75 17.7408 22.75C17.7478 22.75 17.7548 22.75 17.7618 22.75C17.7688 22.75 17.7758 22.75 17.7828 22.75C17.7898 22.75 17.7967 22.75 17.8037 22.75C17.8107 22.75 17.8177 22.75 17.8247 22.75C17.8317 22.75 17.8386 22.75 17.8456 22.75C17.8526 22.75 17.8596 22.75 17.8665 22.75C17.8735 22.75 17.8805 22.75 17.8874 22.75C17.8944 22.75 17.9014 22.75 17.9083 22.75C17.9153 22.75 17.9222 22.75 17.9292 22.75C17.9361 22.75 17.9431 22.75 17.9501 22.75C17.957 22.75 17.964 22.75 17.9709 22.75C17.9778 22.75 17.9848 22.75 17.9917 22.75C17.9987 22.75 18.0056 22.75 18.0125 22.75C18.0195 22.75 18.0264 22.75 18.0333 22.75C18.0403 22.75 18.0472 22.75 18.0541 22.75C18.0611 22.75 18.068 22.75 18.0749 22.75C18.0818 22.75 18.0887 22.75 18.0957 22.75C18.1026 22.75 18.1095 22.75 18.1164 22.75C18.1233 22.75 18.1302 22.75 18.1371 22.75C18.144 22.75 18.1509 22.75 18.1578 22.75C18.1647 22.75 18.1716 22.75 18.1785 22.75C18.1854 22.75 18.1923 22.75 18.1992 22.75C18.2061 22.75 18.213 22.75 18.2199 22.75C18.2267 22.75 18.2336 22.75 18.2405 22.75C18.2474 22.75 18.2543 22.75 18.2611 22.75C18.268 22.75 18.2749 22.75 18.2818 22.75C18.2886 22.75 18.2955 22.75 18.3024 22.75C18.3092 22.75 18.3161 22.75 18.3229 22.75C18.3298 22.75 18.3366 22.75 18.3435 22.75C18.3504 22.75 18.3572 22.75 18.3641 22.75C18.3709 22.75 18.3777 22.75 18.3846 22.75C18.3914 22.75 18.3983 22.75 18.4051 22.75C18.4119 22.75 18.4188 22.75 18.4256 22.75C18.4324 22.75 18.4393 22.75 18.4461 22.75C18.4529 22.75 18.4597 22.75 18.4665 22.75C18.4734 22.75 18.4802 22.75 18.487 22.75C18.4938 22.75 18.5006 22.75 18.5074 22.75C18.5142 22.75 18.521 22.75 18.5278 22.75C18.5347 22.75 18.5415 22.75 18.5482 22.75C18.555 22.75 18.5618 22.75 18.5686 22.75C18.5754 22.75 18.5822 22.75 18.589 22.75C18.5958 22.75 18.6026 22.75 18.6093 22.75C18.6161 22.75 18.6229 22.75 18.6297 22.75C18.6364 22.75 18.6432 22.75 18.65 22.75C18.6567 22.75 18.6635 22.75 18.6703 22.75C18.677 22.75 18.6838 22.75 18.6906 22.75C18.6973 22.75 18.7041 22.75 18.7108 22.75C18.7176 22.75 18.7243 22.75 18.7311 22.75C18.7378 22.75 18.7445 22.75 18.7513 22.75C18.758 22.75 18.7647 22.75 18.7715 22.75C18.7782 22.75 18.7849 22.75 18.7917 22.75C18.7984 22.75 18.8051 22.75 18.8118 22.75C18.8186 22.75 18.8253 22.75 18.832 22.75C18.8387 22.75 18.8454 22.75 18.8521 22.75C18.8588 22.75 18.8655 22.75 18.8722 22.75C18.8789 22.75 18.8856 22.75 18.8923 22.75C18.899 22.75 18.9057 22.75 18.9124 22.75C18.9191 22.75 18.9258 22.75 18.9325 22.75C18.9391 22.75 18.9458 22.75 18.9525 22.75C18.9592 22.75 18.9659 22.75 18.9725 22.75C18.9792 22.75 18.9859 22.75 18.9925 22.75C18.9992 22.75 19.0058 22.75 19.0125 22.75C19.0192 22.75 19.0258 22.75 19.0325 22.75C19.0391 22.75 19.0458 22.75 19.0524 22.75C19.0591 22.75 19.0657 22.75 19.0723 22.75C19.079 22.75 19.0856 22.75 19.0922 22.75C19.0989 22.75 19.1055 22.75 19.1121 22.75C19.1188 22.75 19.1254 22.75 19.132 22.75C19.1386 22.75 19.1452 22.75 19.1518 22.75C19.1585 22.75 19.1651 22.75 19.1717 22.75C19.1783 22.75 19.1849 22.75 19.1915 22.75C19.1981 22.75 19.2047 22.75 19.2113 22.75C19.2179 22.75 19.2244 22.75 19.231 22.75C19.2376 22.75 19.2442 22.75 19.2508 22.75C19.2574 22.75 19.2639 22.75 19.2705 22.75C19.2771 22.75 19.2836 22.75 19.2902 22.75C19.2968 22.75 19.3033 22.75 19.3099 22.75C19.3165 22.75 19.323 22.75 19.3296 22.75C19.3361 22.75 19.3427 22.75 19.3492 22.75C19.3558 22.75 19.3623 22.75 19.3688 22.75C19.3754 22.75 19.3819 22.75 19.3884 22.75C19.395 22.75 19.4015 22.75 19.408 22.75C19.4145 22.75 19.4211 22.75 19.4276 22.75C19.4341 22.75 19.4406 22.75 19.4471 22.75C19.4536 22.75 19.4601 22.75 19.4667 22.75C19.4732 22.75 19.4797 22.75 19.4862 22.75C19.4926 22.75 19.4991 22.75 19.5056 22.75C19.5121 22.75 19.5186 22.75 19.5251 22.75C19.5316 22.75 19.538 22.75 19.5445 22.75C19.551 22.75 19.5575 22.75 19.5639 22.75C19.5704 22.75 19.5769 22.75 19.5833 22.75C19.5898 22.75 19.5963 22.75 19.6027 22.75C19.6092 22.75 19.6156 22.75 19.6221 22.75C19.6285 22.75 19.6349 22.75 19.6414 22.75C19.6478 22.75 19.6543 22.75 19.6607 22.75C19.6671 22.75 19.6736 22.75 19.68 22.75C19.6864 22.75 19.6928 22.75 19.6992 22.75C19.7057 22.75 19.7121 22.75 19.7185 22.75C19.7249 22.75 19.7313 22.75 19.7377 22.75C19.7441 22.75 19.7505 22.75 19.7569 22.75C19.7633 22.75 19.7697 22.75 19.7761 22.75C19.7825 22.75 19.7888 22.75 19.7952 22.75C19.8016 22.75 19.808 22.75 19.8144 22.75C19.8207 22.75 19.8271 22.75 19.8335 22.75C19.8398 22.75 19.8462 22.75 19.8525 22.75C19.8589 22.75 19.8653 22.75 19.8716 22.75C19.878 22.75 19.8843 22.75 19.8906 22.75C19.897 22.75 19.9033 22.75 19.9097 22.75C19.916 22.75 19.9223 22.75 19.9287 22.75C19.935 22.75 19.9413 22.75 19.9476 22.75C19.9539 22.75 19.9603 22.75 19.9666 22.75C19.9729 22.75 19.9792 22.75 19.9855 22.75C19.9918 22.75 19.9981 22.75 20.0044 22.75C20.0107 22.75 20.017 22.75 20.0233 22.75C20.0296 22.75 20.0358 22.75 20.0421 22.75C20.0484 22.75 20.0547 22.75 20.0609 22.75C20.0672 22.75 20.0735 22.75 20.0798 22.75C20.086 22.75 20.0923 22.75 20.0985 22.75C20.1048 22.75 20.111 22.75 20.1173 22.75C20.1235 22.75 20.1298 22.75 20.136 22.75C20.1423 22.75 20.1485 22.75 20.1547 22.75C20.161 22.75 20.1672 22.75 20.1734 22.75C20.1797 22.75 20.1859 22.75 20.1921 22.75C20.1983 22.75 20.2045 22.75 20.2107 22.75C20.2169 22.75 20.2231 22.75 20.2293 22.75C20.2355 22.75 20.2417 22.75 20.2479 22.75C20.2541 22.75 20.2603 22.75 20.2665 22.75C20.2727 22.75 20.2789 22.75 20.285 22.75C20.2912 22.75 20.2974 22.75 20.3035 22.75C20.3097 22.75 20.3159 22.75 20.322 22.75C20.3282 22.75 20.3344 22.75 20.3405 22.75C20.3467 22.75 20.3528 22.75 20.3589 22.75C20.3651 22.75 20.3712 22.75 20.3774 22.75C20.3835 22.75 20.3896 22.75 20.3958 22.75C20.4019 22.75 20.408 22.75 20.4141 22.75C20.4202 22.75 20.4263 22.75 20.4325 22.75C20.4386 22.75 20.4447 22.75 20.4508 22.75C20.4569 22.75 20.463 22.75 20.4691 22.75C20.4752 22.75 20.4812 22.75 20.4873 22.75C20.4934 22.75 20.4995 22.75 20.5056 22.75C20.5116 22.75 20.5177 22.75 20.5238 22.75C20.5298 22.75 20.5359 22.75 20.542 22.75C20.548 22.75 20.5541 22.75 20.5601 22.75C20.5662 22.75 20.5722 22.75 20.5783 22.75C20.5843 22.75 20.5903 22.75 20.5964 22.75C20.6024 22.75 20.6084 22.75 20.6144 22.75C20.6205 22.75 20.6265 22.75 20.6325 22.75C20.6385 22.75 20.6445 22.75 20.6505 22.75C20.6565 22.75 20.6625 22.75 20.6685 22.75C20.6745 22.75 20.6805 22.75 20.6865 22.75C20.6925 22.75 20.6985 22.75 20.7045 22.75C20.7104 22.75 20.7164 22.75 20.7224 22.75C20.7284 22.75 20.7343 22.75 20.7403 22.75C20.7463 22.75 20.7522 22.75 20.7582 22.75C20.7641 22.75 20.7701 22.75 20.776 22.75C20.7819 22.75 20.7879 22.75 20.7938 22.75C20.7998 22.75 20.8057 22.75 20.8116 22.75C20.8175 22.75 20.8235 22.75 20.8294 22.75C20.8353 22.75 20.8412 22.75 20.8471 22.75C20.853 22.75 20.8589 22.75 20.8648 22.75C20.8707 22.75 20.8766 22.75 20.8825 22.75C20.8884 22.75 20.8943 22.75 20.9002 22.75C20.906 22.75 20.9119 22.75 20.9178 22.75C20.9237 22.75 20.9295 22.75 20.9354 22.75C20.9412 22.75 20.9471 22.75 20.9529 22.75C20.9588 22.75 20.9646 22.75 20.9705 22.75C20.9763 22.75 20.9822 22.75 20.988 22.75C20.9938 22.75 20.9997 22.75 21.0055 22.75C21.0113 22.75 21.0171 22.75 21.023 22.75C21.0288 22.75 21.0346 22.75 21.0404 22.75C21.0462 22.75 21.052 22.75 21.0578 22.75C21.0636 22.75 21.0694 22.75 21.0752 22.75C21.0809 22.75 21.0867 22.75 21.0925 22.75C21.0983 22.75 21.1041 22.75 21.1098 22.75C21.1156 22.75 21.1214 22.75 21.1271 22.75C21.1329 22.75 21.1386 22.75 21.1444 22.75C21.1501 22.75 21.1559 22.75 21.1616 22.75C21.1673 22.75 21.1731 22.75 21.1788 22.75C21.1845 22.75 21.1903 22.75 21.196 22.75C21.2017 22.75 21.2074 22.75 21.2131 22.75C21.2188 22.75 21.2245 22.75 21.2302 22.75C21.2359 22.75 21.2416 22.75 21.2473 22.75C21.253 22.75 21.2587 22.75 21.2644 22.75C21.2701 22.75 21.2757 22.75 21.2814 22.75C21.2871 22.75 21.2928 22.75 21.2984 22.75C21.3041 22.75 21.3097 22.75 21.3154 22.75C21.321 22.75 21.3267 22.75 21.3323 22.75C21.338 22.75 21.3436 22.75 21.3492 22.75C21.3549 22.75 21.3605 22.75 21.3661 22.75C21.3717 22.75 21.3774 22.75 21.383 22.75C21.3886 22.75 21.3942 22.75 21.3998 22.75V22Z" fill="white"/>
</svg>
