<svg width="66" height="18" viewBox="0 0 66 18" fill="none" xmlns="http://www.w3.org/2000/svg">
<g opacity="0.9">
<rect y="6.42261" width="2.79237" height="3.35084" rx="0.279237" fill="white"/>
<rect x="3.9093" y="4.74707" width="2.79237" height="5.02626" rx="0.279237" fill="white"/>
<rect x="8.09787" y="2.79248" width="2.79237" height="6.98092" rx="0.279237" fill="white"/>
<rect x="12.0072" y="0.558594" width="2.79237" height="9.21481" rx="0.279237" fill="white"/>
</g>
<g opacity="0.9">
<path d="M36.9001 2.96897C35.0791 1.13534 32.5557 0 29.7673 0C26.9705 0 24.4404 1.14217 22.6182 2.98554L24.1977 4.56519C25.6157 3.12606 27.5874 2.23389 29.7673 2.23389C31.9389 2.23389 33.9037 3.11921 35.3204 4.54859L36.9001 2.96897Z" fill="white"/>
<path d="M34.3333 5.53584C33.1692 4.3591 31.5533 3.63008 29.7673 3.63008C27.9729 3.63008 26.3504 4.36597 25.185 5.55246L26.7647 7.13218C27.5257 6.34991 28.5898 5.86397 29.7673 5.86397C30.9365 5.86397 31.9937 6.34299 32.7536 7.11549L34.3333 5.53584Z" fill="white"/>
<path d="M31.7663 8.10279C31.2592 7.58294 30.5509 7.26016 29.7673 7.26016C28.9753 7.26016 28.2603 7.58989 27.7521 8.11956L29.7508 10.1183L31.7663 8.10279Z" fill="white"/>
</g>
<rect opacity="0.6" x="45.0967" y="0.698088" width="18.7089" height="8.93558" rx="1.81504" stroke="white" stroke-width="0.83771"/>
<rect opacity="0.9" x="46.0741" y="1.67554" width="16.7542" height="6.98092" rx="1.11695" fill="white"/>
<path opacity="0.6" d="M64.7829 3.90942C65.3998 3.90942 65.8999 4.4095 65.8999 5.02637V5.30561C65.8999 5.92248 65.3998 6.42255 64.7829 6.42255V3.90942Z" fill="white"/>
<rect opacity="0.6" x="7.5394" y="15.9165" width="45.5156" height="1.95466" rx="0.977329" fill="white"/>
</svg>
