<svg width="67" height="18" viewBox="0 0 67 18" fill="none" xmlns="http://www.w3.org/2000/svg">
<g opacity="0.9">
<rect y="6.46948" width="2.81282" height="3.37538" rx="0.281282" fill="white"/>
<rect x="3.93793" y="4.78174" width="2.81282" height="5.06307" rx="0.281282" fill="white"/>
<rect x="8.15717" y="2.81274" width="2.81282" height="7.03204" rx="0.281282" fill="white"/>
<rect x="12.0951" y="0.5625" width="2.81282" height="9.2823" rx="0.281282" fill="white"/>
</g>
<g opacity="0.9">
<path d="M37.1704 2.99071C35.336 1.14365 32.7942 0 29.9853 0C27.168 0 24.6194 1.15054 22.7838 3.0074L24.375 4.59862C25.8033 3.14895 27.7895 2.25025 29.9853 2.25025C32.1728 2.25025 34.152 3.14205 35.5791 4.5819L37.1704 2.99071Z" fill="white"/>
<path d="M34.5847 5.57638C33.4121 4.39103 31.7844 3.65666 29.9853 3.65666C28.1777 3.65666 26.5433 4.39795 25.3695 5.59312L26.9607 7.18441C27.7273 6.39641 28.7992 5.90692 29.9853 5.90692C31.1631 5.90692 32.228 6.38944 32.9935 7.1676L34.5847 5.57638Z" fill="white"/>
<path d="M31.9989 8.16213C31.4882 7.63847 30.7747 7.31333 29.9853 7.31333C29.1875 7.31333 28.4673 7.64548 27.9554 8.17903L29.9687 10.1924L31.9989 8.16213Z" fill="white"/>
</g>
<rect opacity="0.6" x="45.427" y="0.703322" width="18.8459" height="9.00102" rx="1.82833" stroke="white" stroke-width="0.843845"/>
<rect opacity="0.9" x="46.4115" y="1.68774" width="16.8769" height="7.03204" rx="1.12513" fill="white"/>
<path opacity="0.6" d="M65.2574 3.93799C65.8788 3.93799 66.3825 4.44172 66.3825 5.06312V5.3444C66.3825 5.96579 65.8788 6.46952 65.2574 6.46952V3.93799Z" fill="white"/>
<rect opacity="0.6" x="7.5946" y="16.033" width="45.8489" height="1.96897" rx="0.984486" fill="white"/>
</svg>
